<?xml version="1.0" standalone="no"?>
<!DOCTYPE svg PUBLIC "-//W3C//DTD SVG 20010904//EN"
 "http://www.w3.org/TR/2001/REC-SVG-20010904/DTD/svg10.dtd">
<svg version="1.0" xmlns="http://www.w3.org/2000/svg"
 width="716.000000pt" height="716.000000pt" viewBox="0 0 716.000000 716.000000"
 preserveAspectRatio="xMidYMid meet">
<metadata>
Created by potrace 1.14, written by Peter Selinger 2001-2017
</metadata>
<g transform="translate(0.000000,716.000000) scale(0.100000,-0.100000)"
fill="#000000" stroke="none">
<path d="M3322 6659 c-18 -4 -36 -9 -39 -13 -9 -9 -11 -106 -2 -143 4 -18 3
-33 -1 -33 -4 0 -5 -11 -3 -24 3 -13 0 -26 -5 -30 -13 -8 -70 -17 -136 -21
-30 -1 -59 -6 -65 -9 -6 -4 -11 -4 -12 1 0 4 -2 17 -4 28 -2 11 -7 39 -10 62
-3 23 -9 63 -14 88 -5 25 -6 45 -2 45 3 0 0 4 -8 9 -7 5 -28 5 -45 1 -17 -5
-48 -11 -69 -15 l-39 -6 6 -87 c3 -48 7 -98 10 -112 2 -14 7 -45 10 -70 4 -25
8 -56 11 -70 4 -28 13 -91 20 -160 11 -98 7 -93 88 -85 69 6 89 16 82 39 -2 6
-6 54 -9 106 l-5 95 101 0 c98 0 101 -1 110 -25 10 -25 17 -84 20 -147 l1 -33
89 0 90 0 -6 43 c-10 76 -15 121 -21 192 -3 39 -8 97 -11 130 -7 70 -11 136
-13 185 -1 19 -5 40 -9 47 -10 15 -67 21 -110 12z"/>
<path d="M3839 6532 c-81 -148 -146 -271 -158 -297 -5 -11 -25 -54 -44 -95
-20 -41 -33 -78 -29 -82 4 -3 32 -9 62 -12 30 -3 65 -8 78 -11 20 -3 27 3 44
43 12 26 26 50 32 55 10 7 117 2 161 -7 11 -3 28 -5 38 -5 27 -1 57 -38 57
-69 0 -40 28 -61 97 -74 86 -16 96 -10 79 47 -8 25 -12 45 -10 45 3 0 0 8 -5
18 -5 9 -12 33 -15 53 -3 20 -10 49 -16 65 -6 16 -11 30 -10 32 1 1 -5 26 -13
55 -8 28 -25 90 -37 137 -34 126 -51 180 -61 186 -5 3 -28 7 -52 10 -60 6
-121 15 -128 20 -3 2 -35 -49 -70 -114z m158 -140 c7 -20 16 -58 19 -84 l6
-47 -28 4 c-81 13 -94 17 -94 24 0 11 41 99 60 128 17 26 20 24 37 -25z"/>
<path d="M2575 6528 c-33 -11 -125 -41 -205 -66 -162 -53 -157 -46 -118 -134
22 -50 19 -49 85 -34 12 2 31 9 41 15 31 16 39 0 122 -244 28 -82 55 -154 60
-159 11 -11 125 21 141 41 9 10 -2 54 -45 182 -31 94 -59 178 -61 188 -2 10
-7 28 -11 40 -7 24 13 37 71 47 63 12 66 15 60 58 -11 70 -21 88 -52 87 -16
-1 -55 -10 -88 -21z"/>
<path d="M4406 6488 c-15 -32 -20 -57 -15 -64 5 -6 36 -22 69 -35 70 -28 72
-35 33 -139 -3 -8 -7 -19 -9 -25 -1 -5 -12 -35 -24 -65 -12 -30 -32 -84 -45
-120 -12 -36 -26 -73 -30 -83 -6 -14 4 -22 49 -42 92 -41 96 -39 138 68 20 50
51 133 69 183 17 50 38 99 46 110 12 17 15 17 61 1 73 -26 85 -23 110 28 12
25 22 52 22 59 0 17 -128 72 -310 132 -25 9 -52 19 -60 23 -9 5 -30 12 -48 16
-32 6 -33 5 -56 -47z"/>
<path d="M1787 6217 c-80 -44 -83 -47 -92 -112 -4 -22 -8 -47 -10 -55 -3 -8
-7 -33 -10 -55 -3 -22 -8 -51 -11 -65 -3 -14 -8 -36 -11 -50 -9 -49 -21 -40
-79 58 -24 42 -52 87 -62 99 l-17 22 -67 -43 -68 -42 42 -70 c23 -38 66 -104
95 -148 29 -43 53 -82 53 -87 0 -5 5 -9 10 -9 6 0 10 -6 10 -13 0 -8 9 -22 20
-32 11 -10 20 -22 20 -26 0 -5 18 -33 39 -64 22 -31 42 -62 43 -67 5 -13 82
30 122 67 l26 24 -50 79 c-52 82 -61 108 -34 98 9 -3 48 -13 88 -22 98 -21 99
-21 142 -33 56 -16 87 -14 110 7 10 10 36 28 57 41 20 12 37 25 37 27 0 6 -29
17 -210 83 l-155 57 2 49 c1 47 5 74 17 135 3 14 8 43 11 65 3 22 8 59 11 83
3 23 4 42 3 42 -2 0 -39 -19 -82 -43z"/>
<path d="M5238 6196 c-8 -7 -22 -32 -32 -55 l-19 -41 29 -25 c15 -13 41 -30
56 -36 15 -6 28 -15 28 -20 0 -5 7 -9 15 -9 8 0 15 -2 15 -5 0 -3 -34 -60 -75
-126 -41 -67 -75 -125 -75 -129 0 -5 -3 -10 -7 -12 -7 -3 -73 -105 -73 -112 0
-10 42 -46 84 -74 50 -33 66 -38 66 -24 0 12 174 299 222 365 12 17 15 16 52
-9 21 -15 53 -28 70 -31 30 -4 34 0 59 45 15 27 27 52 27 55 0 5 -64 48 -113
76 -18 10 -94 55 -170 100 -76 44 -140 81 -142 81 -2 0 -10 -6 -17 -14z"/>
<path d="M5835 5706 c-137 -60 -425 -199 -461 -223 l-24 -15 43 -42 c87 -83
80 -80 124 -57 21 12 45 27 55 33 13 10 25 5 70 -29 67 -53 128 -108 128 -118
0 -4 -13 -30 -30 -56 -16 -27 -26 -49 -22 -49 4 0 25 -17 48 -37 22 -21 54
-46 72 -56 l31 -18 16 38 c9 21 50 121 92 223 41 102 80 196 86 210 5 14 11
30 13 35 2 6 11 31 20 56 l18 46 -43 39 c-51 46 -92 74 -106 73 -5 0 -64 -24
-130 -53z m75 -151 c0 -24 -59 -135 -75 -141 -8 -4 -30 9 -51 29 l-37 35 55
33 c30 19 63 39 74 46 26 16 34 16 34 -2z"/>
<path d="M960 5656 c-14 -13 -40 -38 -57 -57 l-33 -34 23 -26 c12 -14 45 -52
74 -85 28 -32 60 -69 70 -80 77 -91 121 -141 138 -160 11 -12 37 -42 58 -68
l39 -45 30 22 c17 12 89 79 161 149 127 125 130 128 114 150 -26 38 -74 88
-84 88 -5 0 -51 -42 -101 -92 l-93 -93 -27 30 c-15 17 -50 57 -77 90 -28 33
-63 73 -78 90 -15 16 -42 48 -59 70 -18 23 -41 48 -53 57 -19 15 -22 14 -45
-6z"/>
<path d="M3290 5599 c-194 -24 -187 -23 -295 -48 -195 -45 -375 -102 -507
-160 -23 -11 -47 -20 -53 -21 -5 -1 -28 -12 -50 -23 -22 -12 -42 -22 -45 -22
-6 -1 -150 -76 -172 -90 -9 -5 -43 -25 -75 -44 -32 -18 -60 -37 -63 -40 -3 -4
-36 -29 -75 -56 -305 -213 -617 -560 -795 -880 -80 -143 -185 -385 -205 -471
-2 -10 -9 -37 -15 -59 -16 -59 -28 -107 -34 -135 -3 -14 -7 -34 -9 -45 -3 -11
-8 -40 -12 -65 -4 -25 -9 -53 -11 -63 -22 -117 -22 -443 0 -597 15 -106 40
-235 56 -285 5 -16 11 -41 14 -55 15 -84 113 -333 192 -490 55 -109 150 -271
182 -312 133 -163 180 -215 270 -306 92 -91 132 -128 215 -197 85 -71 243
-185 257 -185 5 0 10 -4 10 -10 0 -5 4 -10 10 -10 5 0 35 -16 66 -36 179 -115
520 -256 744 -308 41 -10 82 -20 90 -23 8 -3 22 -7 30 -8 8 -1 29 -5 45 -8 17
-3 53 -9 80 -13 28 -3 59 -8 70 -11 123 -24 575 -24 715 1 14 2 43 7 65 10 22
3 54 9 70 12 17 4 38 7 48 8 9 0 17 4 17 9 0 4 4 6 8 3 8 -5 138 27 237 58 28
8 53 14 56 13 3 -1 12 3 20 9 8 6 32 17 54 24 22 7 56 21 75 31 19 11 40 19
46 19 10 0 327 157 383 191 14 8 34 22 45 32 11 9 25 17 32 17 7 0 14 3 16 8
2 4 26 23 53 42 28 19 55 39 62 45 6 5 26 21 44 35 141 107 393 354 499 490
19 25 37 47 40 50 13 11 94 136 138 213 154 271 257 561 307 863 25 157 34
379 21 544 -7 82 -9 103 -22 173 -3 17 -7 43 -9 57 -2 14 -11 57 -20 95 -9 39
-18 77 -20 85 -22 97 -106 314 -172 445 -43 86 -122 225 -133 235 -3 3 -21 30
-41 60 -123 189 -383 463 -579 612 -63 48 -123 94 -132 103 -10 8 -21 15 -24
15 -4 0 -38 21 -77 46 -77 51 -271 155 -357 192 -156 67 -420 157 -490 167
-14 2 -47 9 -75 15 -27 7 -59 14 -70 15 -11 2 -51 8 -90 15 -38 6 -88 13 -110
16 -70 9 -477 12 -545 3z m1210 -997 c239 -69 467 -183 607 -303 95 -82 253
-240 253 -254 0 -4 11 -16 25 -27 14 -11 25 -25 25 -33 0 -7 4 -15 8 -17 11
-4 72 -97 72 -109 0 -5 5 -9 11 -9 5 0 8 -4 4 -9 -3 -5 -1 -12 5 -16 9 -6 46
-79 87 -175 22 -50 60 -170 67 -210 3 -14 5 -25 6 -25 3 0 18 -94 27 -170 13
-115 7 -369 -13 -470 -2 -11 -8 -44 -14 -74 -29 -156 -136 -395 -250 -559 -87
-126 -244 -288 -350 -362 -19 -13 -37 -27 -40 -30 -7 -8 -34 -24 -135 -79
-123 -68 -308 -134 -435 -156 -19 -3 -42 -8 -50 -10 -26 -7 -112 -15 -210 -20
-116 -6 -124 -9 -152 -48 -92 -132 -325 -377 -358 -377 -5 0 -10 -4 -10 -9 0
-15 -186 -135 -260 -169 -86 -40 -133 -52 -202 -52 -151 0 -306 98 -377 238
-27 54 -65 165 -75 222 -14 78 -34 158 -45 177 -6 13 -24 25 -39 28 -73 15
-314 102 -400 145 -369 186 -643 499 -781 893 -17 48 -30 88 -30 90 1 1 -4 20
-10 42 -5 22 -13 54 -15 70 -3 17 -8 39 -10 51 -13 63 -19 154 -18 274 0 162
5 214 27 320 3 14 7 37 10 52 20 108 121 350 193 462 136 211 364 431 550 531
20 11 39 22 42 25 7 8 136 70 144 70 3 0 26 9 50 21 25 11 51 22 58 23 7 2 20
6 28 9 59 25 182 49 270 54 58 3 106 6 107 7 1 1 338 1 750 0 l748 -2 105 -30z"/>
<path d="M3117 4213 c-1 -1 -78 -3 -172 -4 -194 -3 -268 -16 -378 -63 -88 -39
-212 -108 -250 -139 -14 -12 -48 -42 -76 -65 -28 -24 -51 -47 -51 -51 0 -9
113 -12 360 -11 8 0 240 -2 515 -4 275 -2 648 -5 829 -6 l328 -2 79 -40 c74
-37 159 -108 214 -178 44 -56 95 -173 112 -260 5 -27 4 -154 -2 -185 -34 -175
-145 -324 -296 -399 -94 -46 -124 -49 -604 -56 -133 -2 -165 -11 -165 -47 0
-7 -4 -13 -8 -13 -5 0 -17 -18 -27 -40 -10 -22 -22 -40 -27 -40 -4 0 -8 -4 -8
-10 0 -11 -41 -81 -114 -193 -46 -72 -51 -77 -64 -60 -7 10 -56 104 -109 208
-53 105 -99 192 -103 195 -6 4 -1201 5 -1233 1 -4 -1 -3 -9 2 -18 6 -10 18
-43 27 -73 56 -183 260 -454 415 -553 102 -65 329 -176 329 -160 0 3 6 1 13
-4 6 -6 30 -14 52 -18 22 -4 51 -9 65 -12 14 -2 60 -5 103 -7 l79 -2 30 -64
c49 -104 137 -327 170 -429 30 -95 69 -152 99 -147 71 12 166 82 295 216 29
30 63 69 76 85 12 17 33 41 45 55 13 14 23 28 23 32 0 3 6 13 13 20 18 19 93
138 108 170 7 16 16 28 21 28 4 0 8 7 8 15 0 18 -14 16 180 20 187 5 357 13
388 19 85 18 281 101 338 143 17 13 36 23 42 23 7 0 12 5 12 10 0 6 7 10 15
10 9 0 68 53 133 118 176 175 284 367 329 582 17 77 23 346 11 425 -19 123
-71 279 -120 360 -9 17 -25 44 -34 60 -53 96 -213 268 -334 359 -74 56 -203
119 -335 164 l-90 31 -628 3 c-346 2 -629 2 -630 1z"/>
<path d="M3021 3456 c-76 -52 -107 -145 -71 -219 10 -20 16 -37 13 -37 -2 0
12 -15 31 -34 126 -118 320 -27 312 147 -2 46 -9 65 -32 95 -68 84 -170 104
-253 48z"/>
<path d="M3806 3460 c-71 -45 -98 -125 -73 -220 15 -59 75 -115 135 -126 95
-18 204 58 218 152 24 162 -145 279 -280 194z"/>
<path d="M6325 5259 c-261 -187 -375 -272 -375 -281 0 -5 55 -77 123 -160 67
-83 130 -161 140 -174 26 -34 50 -30 98 15 l41 40 -23 33 c-13 18 -49 68 -81
111 -32 43 -58 83 -58 88 0 5 79 68 175 140 l175 131 -21 38 c-29 52 -63 90
-81 90 -7 0 -59 -32 -113 -71z"/>
<path d="M520 5181 c-28 -31 -53 -65 -56 -76 -3 -14 16 -58 60 -133 37 -62 66
-115 66 -118 0 -3 15 -29 34 -58 18 -29 37 -62 40 -74 4 -12 12 -22 17 -22 5
0 9 -5 9 -10 0 -13 98 -160 107 -160 6 0 48 44 91 94 l23 27 -36 50 c-19 27
-35 57 -35 67 0 16 42 71 117 151 l22 23 55 -23 56 -23 28 30 c16 16 46 51 66
78 l38 50 -24 9 c-22 9 -87 28 -153 47 -16 4 -57 15 -90 25 -91 25 -208 55
-230 60 -11 2 -20 4 -20 5 0 1 -30 9 -68 19 l-67 17 -50 -55z m234 -166 c33
-11 61 -25 63 -32 2 -6 -11 -28 -28 -48 l-33 -37 -18 24 c-65 82 -93 145 -55
121 7 -4 39 -17 71 -28z"/>
<path d="M264 4777 c-35 -48 -102 -156 -200 -321 l-47 -79 24 -19 c24 -19 94
-58 103 -58 3 0 23 26 43 58 21 31 42 60 47 64 12 8 16 6 186 -93 74 -43 152
-85 172 -94 l38 -15 26 42 c15 24 35 55 45 69 17 26 17 27 0 43 -10 9 -21 16
-24 16 -4 0 -24 11 -45 23 -20 13 -68 41 -107 62 -38 21 -96 56 -129 78 -54
36 -58 41 -52 69 3 16 15 41 26 55 11 14 20 31 20 39 0 7 6 14 13 17 19 6 -4
29 -60 59 l-48 26 -31 -41z"/>
<path d="M6752 4760 c-46 -28 -103 -61 -125 -74 -114 -64 -313 -180 -320 -186
-9 -8 62 -147 78 -154 6 -2 51 16 100 41 50 24 98 42 108 41 16 -3 14 -9 -15
-53 -18 -27 -35 -52 -39 -55 -16 -12 -67 -117 -64 -131 2 -9 15 -45 31 -79
l28 -62 35 41 c74 84 116 133 186 217 75 89 67 86 148 57 119 -43 225 -71 238
-63 9 6 -1 32 -37 96 l-49 88 -123 38 c-129 41 -140 50 -86 78 16 9 46 25 66
36 l38 19 -47 78 c-26 42 -52 77 -58 77 -5 0 -48 -23 -93 -50z"/>
</g>
</svg>
