<svg width="21" height="21" viewBox="0 0 21 21" fill="none" xmlns="http://www.w3.org/2000/svg">
<path d="M13.7812 1.3125C12.859 1.31229 11.9494 1.52812 11.1256 1.9427C10.3017 2.35728 9.58641 2.95909 9.037 3.69988C8.48759 4.44068 8.11934 5.29987 7.96177 6.20861C7.8042 7.11734 7.86169 8.05036 8.12962 8.93288L1.3125 15.75V19.6875H5.25L12.0671 12.8704C12.8795 13.117 13.7355 13.1855 14.5768 13.0714C15.418 12.9572 16.2248 12.663 16.9421 12.2089C17.6594 11.7548 18.2703 11.1513 18.7333 10.4397C19.1963 9.72807 19.5004 8.925 19.625 8.08522C19.7495 7.24543 19.6916 6.38866 19.455 5.5733C19.2185 4.75794 18.809 4.00315 18.2544 3.36037C17.6998 2.71759 17.0131 2.20193 16.2412 1.84853C15.4693 1.49513 14.6302 1.3123 13.7812 1.3125ZM13.7812 11.8125C13.3294 11.8124 12.8801 11.7456 12.4478 11.6143L11.695 11.3859L11.1392 11.9418L9.05166 14.0293L8.14669 13.125L7.21875 14.0529L8.12372 14.9579L7.08291 15.9987L6.17794 15.0938L5.25 16.0217L6.15497 16.9267L4.70662 18.375H2.625V16.2934L9.05756 9.86081L9.61406 9.30497L9.38569 8.55225C9.10519 7.62759 9.12342 6.63802 9.43776 5.72432C9.75211 4.81061 10.3466 4.01929 11.1366 3.46292C11.9266 2.90655 12.8719 2.61346 13.8381 2.62535C14.8043 2.63723 15.7422 2.95349 16.5183 3.52913C17.2944 4.10477 17.8692 4.91047 18.161 5.83164C18.4527 6.7528 18.4466 7.74251 18.1434 8.66C17.8403 9.57748 17.2555 10.376 16.4724 10.942C15.6892 11.508 14.7475 11.8126 13.7812 11.8125Z" fill="#7B7B7E"/>
<path d="M14.4375 7.875C15.1624 7.875 15.75 7.28737 15.75 6.5625C15.75 5.83763 15.1624 5.25 14.4375 5.25C13.7126 5.25 13.125 5.83763 13.125 6.5625C13.125 7.28737 13.7126 7.875 14.4375 7.875Z" fill="#7B7B7E"/>
</svg>
