<svg width="447" height="418" viewBox="0 0 447 418" fill="none" xmlns="http://www.w3.org/2000/svg">
<path d="M18.2195 47C13.389 47.0064 8.75801 49.2758 5.34238 53.3102C1.92675 57.3446 0.00545093 62.8146 0 68.5201V302.48C0.00545092 308.185 1.92675 313.655 5.34238 317.69C8.75801 321.724 13.389 323.994 18.2195 324H428.781C433.611 323.994 438.242 321.724 441.658 317.69C445.073 313.655 446.995 308.185 447 302.48V68.5201C446.995 62.8146 445.073 57.3446 441.658 53.3102C438.242 49.2758 433.611 47.0064 428.781 47H18.2195Z" fill="white"/>
<path d="M65.2638 312.447C65.2973 311.507 62.7094 310.63 59.4836 310.487C56.2578 310.345 53.6156 310.991 53.582 311.931C53.5485 312.871 56.1364 313.748 59.3622 313.89C62.588 314.033 65.2303 313.386 65.2638 312.447Z" fill="#E6E6E6"/>
<path d="M102.473 310.254C102.507 309.314 99.9191 308.437 96.6933 308.295C93.4675 308.152 90.8253 308.799 90.7918 309.738C90.7582 310.678 93.3462 311.555 96.572 311.698C99.7978 311.84 102.44 311.194 102.473 310.254Z" fill="#3F3D56"/>
<path d="M50.967 299.673C51.0005 298.733 48.4126 297.855 45.1868 297.713C41.961 297.571 39.3188 298.217 39.2853 299.157C39.2518 300.097 41.8396 300.974 45.0655 301.116C48.2913 301.259 50.9335 300.612 50.967 299.673Z" fill="#EDB6AF"/>
<path d="M32.9949 295.006C33.0808 294.167 31.9937 293.34 30.5667 293.159C29.1398 292.978 27.9133 293.511 27.8274 294.35C27.7414 295.189 28.8285 296.016 30.2555 296.197C31.6825 296.378 32.9089 295.845 32.9949 295.006Z" fill="#E6E6E6"/>
<path d="M24.4076 285.221C24.4935 284.382 23.4064 283.555 21.9794 283.374C20.5525 283.193 19.326 283.727 19.2401 284.566C19.1541 285.405 20.2413 286.231 21.6682 286.412C23.0952 286.593 24.3217 286.06 24.4076 285.221Z" fill="#3F3D56"/>
<path d="M72.9369 301.882C73.0228 301.043 71.9357 300.216 70.5087 300.035C69.0818 299.854 67.8553 300.387 67.7694 301.226C67.6834 302.065 68.7706 302.892 70.1975 303.073C71.6245 303.254 72.851 302.721 72.9369 301.882Z" fill="#E6E6E6"/>
<path d="M55.9071 306.045C55.993 305.206 54.9059 304.38 53.479 304.199C52.052 304.018 50.8255 304.551 50.7396 305.39C50.6537 306.229 51.7408 307.056 53.1677 307.237C54.5947 307.418 55.8212 306.884 55.9071 306.045Z" fill="#EDB6AF"/>
<path d="M83.4522 312.752C83.5382 311.913 82.4511 311.087 81.0241 310.906C79.5972 310.725 78.3707 311.258 78.2848 312.097C78.1988 312.936 79.2859 313.763 80.7129 313.944C82.1399 314.125 83.3663 313.591 83.4522 312.752Z" fill="#3F3D56"/>
<path d="M2.78072e-06 278C-0.000243281 278.131 0.0158432 278.262 0.0473311 278.383C0.078819 278.505 0.125092 278.615 0.183484 278.708C0.241876 278.801 0.311233 278.875 0.387571 278.925C0.46391 278.975 0.545721 279 0.628297 279H446.372C446.538 279 446.698 278.895 446.816 278.707C446.934 278.52 447 278.265 447 278C447 277.735 446.934 277.48 446.816 277.293C446.698 277.105 446.538 277 446.372 277H0.628265C0.545693 277 0.463889 277.025 0.387555 277.075C0.311221 277.125 0.241864 277.199 0.183476 277.292C0.125088 277.385 0.078818 277.495 0.0473311 277.617C0.0158442 277.738 -0.000240458 277.869 2.78072e-06 278Z" fill="#CCCCCC"/>
<path d="M343.165 15.1485C341.333 -0.469579 308.954 0.526708 305.896 15.2207C304.275 14.0922 300.149 14.8733 298.611 16.1705C297.072 17.4677 296.086 19.3746 295.12 21.2258C293.802 23.7969 292.436 26.46 292.144 29.408C291.84 32.3504 292.879 35.6835 295.277 36.9937C297.179 38.0378 301.364 37.3327 303.455 36.8653C304.914 36.5426 306.138 36.2599 307.178 35.9827C307.527 34.1539 307.286 32.2468 306.497 30.5959C307.337 30.7815 308.13 31.1716 308.819 31.7383C309.507 32.305 310.075 33.0342 310.48 33.8736C310.644 34.2252 316.576 83.9069 316.576 83.9069C318.197 84.1244 319.834 84.1698 321.463 84.0426C322.474 77.9283 322.658 71.6801 322.009 65.5052C323.727 69.0346 325.086 72.766 326.061 76.6303C326.62 78.7917 327.079 80.9834 327.436 83.1969C341.554 80.2597 360.638 70.1431 364.121 52.9651C364.101 52.9096 364.082 52.8542 364.063 52.7988C363.873 52.2739 363.852 51.6916 364.005 51.1518C364.158 50.612 364.476 50.1482 364.902 49.8399C365.329 49.5315 365.839 49.3978 366.344 49.4617C366.85 49.5255 367.32 49.7829 367.673 50.1898C368.099 50.6771 368.479 51.0937 368.799 51.4165C367.561 40.4463 360.082 30.5747 343.165 15.1485Z" fill="#2F2E41"/>
<path d="M137.026 397.649L129.111 393.045L141.662 356.13L153.344 362.925L137.026 397.649Z" fill="#A0616A"/>
<path d="M105.088 397.204C104.599 398.248 104.501 399.466 104.818 400.591C105.134 401.715 105.838 402.654 106.776 403.201L122.514 412.354L128.154 407.69L126.283 414.541L132.219 418L141.01 394.772L139.006 393.436L130.842 387.965L128.205 386.205L125.243 392.507L108.136 394.854C107.495 394.942 106.883 395.202 106.352 395.611C105.821 396.021 105.388 396.567 105.088 397.204Z" fill="#2F2E41"/>
<path d="M128.917 261.75L123.16 254.152L147.347 225.28L155.844 236.493L128.917 261.75Z" fill="#A0616A"/>
<path d="M99.5124 247.874C98.7035 248.634 98.1986 249.72 98.1085 250.894C98.0184 252.068 98.3505 253.234 99.0318 254.135L110.479 269.24L117.286 267.302L113.222 272.854L117.538 278.557L133.584 260.767L132.184 258.686L126.492 250.18L124.651 247.441L119.764 252.024L103.133 246.984C102.51 246.795 101.855 246.778 101.224 246.933C100.594 247.088 100.006 247.411 99.5124 247.874Z" fill="#2F2E41"/>
<path d="M382.82 233.281C382.82 233.281 407.262 291.487 306.042 275.803C306.042 275.803 252.114 209.309 253.672 201.309C253.672 201.309 230.72 175.36 231.843 174.888C232.966 174.416 233.659 173.39 231.803 173.483C229.947 173.576 229.947 170.502 229.947 170.502C229.947 170.502 188.466 220.55 153.539 245.385L141.463 230.271C141.463 230.271 146.173 213.881 148.437 213.881C150.701 213.881 151.481 214.486 151.846 211.245C152.211 208.003 150.408 205.22 152.819 204.932C155.23 204.644 205.198 139.67 205.198 139.67C205.198 139.67 210.589 118.269 227.061 122.411C243.532 126.553 329.121 203.973 329.121 203.973L382.82 233.281Z" fill="#2F2E41"/>
<path d="M341.601 277.689L207.879 276.454L149.765 378.896L133.343 369.224L136.983 367.514C136.983 367.514 135.881 353.276 137.231 349.671C138.581 346.067 142.598 347.151 142.598 347.151L176.479 260.219C178.816 252.503 183.407 245.878 189.52 241.401C195.633 236.924 202.916 234.851 210.211 235.513C238.246 230.964 283.756 234.599 331.036 239.063L341.601 277.689Z" fill="#2F2E41"/>
<path d="M264.18 103.343C266.725 103.777 269.018 105.299 270.57 107.585C272.122 109.871 272.811 112.741 272.491 115.584C272.418 116.16 272.301 116.729 272.144 117.285L299.621 140.473L293.951 160.125L259.397 123.832C257.378 122.926 255.685 121.302 254.583 119.213C253.48 117.124 253.031 114.688 253.303 112.285C253.471 110.919 253.878 109.603 254.502 108.413C255.126 107.222 255.955 106.18 256.941 105.346C257.927 104.511 259.052 103.901 260.25 103.55C261.448 103.199 262.696 103.114 263.924 103.3C264.009 103.313 264.095 103.327 264.18 103.343Z" fill="#A0616A"/>
<path d="M385.398 104.791L375.519 135.221L336.884 195.964C336.884 195.964 336.567 195.813 335.994 195.544C332.673 193.949 320.613 188.088 309.269 181.429C298.62 175.173 288.59 168.212 287.035 163.426C286.869 162.922 286.718 162.435 286.582 161.965V161.957C285.858 159.519 285.404 156.993 285.231 154.433C285.103 152.46 285.216 151.402 284.975 151.276C284.786 151.183 284.394 151.637 283.526 152.661C283.465 152.728 283.412 152.796 283.352 152.854C280.212 156.356 276.356 155.902 277.299 154.24C278.265 152.535 277.759 152.569 276.341 150.789C275.284 149.462 271.85 144.273 270.159 141.712C269.578 140.83 269.208 140.259 269.208 140.259L269.79 139.243L271.397 136.438L279.042 123.104L279.465 122.374C279.465 122.374 295.178 126.413 297.269 130.25C299.367 134.087 294.107 133.961 299.367 134.087C304.628 134.213 309.994 126.253 306.152 134.171C302.311 142.081 303.322 144.844 308.077 143.593C310.009 143.08 313.065 144.701 316.009 146.8V146.809C317.849 148.139 319.625 149.577 321.33 151.116C323.148 152.745 324.379 153.979 324.379 153.979L354.22 86.6196L357.526 79.1632C358.533 76.8943 359.937 74.8716 361.656 73.2136C363.374 71.5555 365.372 70.2954 367.534 69.5068L368.568 71.5136C375.005 82.0621 380.635 93.1935 385.398 104.791Z" fill="#DA6D5F"/>
<path d="M387.051 201.372C396.198 203.74 386.467 277.821 375.564 278.052C296.318 279.731 320.446 230.265 316.197 225.529C311.948 220.785 308.114 224.186 311.948 216.805C314.741 211.431 318.884 212.229 318.944 209.214C318.975 208.089 318.439 206.443 317.05 203.74C311.948 193.798 311.948 190.834 311.948 190.834C310.676 187.848 309.775 184.684 309.269 181.429C308.441 176.588 308.339 171.629 308.967 166.751C309.925 159.596 312.333 152.776 316.009 146.809V146.8C316.393 146.162 316.794 145.515 317.216 144.877C318.175 143.425 323.488 143.702 323.488 143.702L334.809 90.8014L328.258 69.7084L359.284 53.536L367.533 69.5068L368.567 71.5137C375.005 82.0621 380.635 93.1936 385.398 104.791C389.979 116.135 393.745 128.73 393.881 139.688C394.243 168.263 389.813 176.76 389.813 176.76C389.813 176.76 400.568 185.703 395.186 191.169C389.813 196.644 377.903 199.004 387.051 201.372Z" fill="#DA6D5F"/>
<path d="M246.492 96.3834L241.429 100.662C240.429 101.513 239.773 102.77 239.605 104.158C239.436 105.545 239.769 106.951 240.53 108.067L252.722 125.896L259.922 136.415C260.685 137.526 261.813 138.255 263.059 138.442C264.304 138.63 265.565 138.26 266.567 137.415L271.635 133.131C272.631 132.278 273.283 131.022 273.45 129.636C273.618 128.25 273.286 126.847 272.528 125.731L271.781 124.633L257.012 103.042L253.137 97.3827C252.759 96.8314 252.288 96.3683 251.75 96.0197C251.212 95.6711 250.617 95.4439 250 95.3511C249.383 95.2583 248.756 95.3017 248.154 95.4788C247.551 95.656 246.987 95.9634 246.492 96.3834Z" fill="#3F3D56"/>
<path d="M249.139 96.06L243.686 100.293C243.205 100.643 242.796 101.102 242.486 101.64C242.176 102.179 241.973 102.784 241.889 103.417C241.805 104.049 241.842 104.694 241.998 105.31C242.155 105.925 242.427 106.496 242.796 106.986L249.934 116.555L253.738 121.653L256.276 125.054L261.952 132.662C262.754 133.683 263.866 134.339 265.076 134.507C266.286 134.674 267.508 134.341 268.511 133.57L272.598 130.398L273.958 129.343C274.635 128.841 275.164 128.126 275.478 127.29C275.792 126.454 275.877 125.533 275.722 124.643C275.586 123.904 275.285 123.214 274.849 122.636L258.077 100.15L255.699 96.9678C254.897 95.9456 253.785 95.288 252.575 95.1205C251.365 94.9531 250.141 95.2875 249.139 96.06Z" fill="#DA6D5F"/>
<path d="M252.624 119.694C255.169 120.128 257.462 121.65 259.014 123.936C260.566 126.222 261.255 129.091 260.935 131.934C260.861 132.511 260.745 133.08 260.587 133.635L288.065 156.824L282.394 176.476L247.841 140.183C245.822 139.277 244.129 137.653 243.027 135.564C241.924 133.475 241.474 131.039 241.747 128.636C241.914 127.27 242.322 125.954 242.946 124.763C243.57 123.573 244.399 122.53 245.385 121.696C246.371 120.862 247.495 120.252 248.693 119.901C249.891 119.55 251.14 119.465 252.368 119.651C252.453 119.664 252.539 119.678 252.624 119.694Z" fill="#A0616A"/>
<path d="M364.688 85.3039C367.09 85.8479 369.358 86.9611 371.339 88.5676C373.32 90.1741 374.966 92.2363 376.166 94.614C377.367 96.9917 378.092 99.629 378.295 102.347C378.497 105.064 378.171 107.799 377.338 110.364L363.966 151.569L325.325 212.318C325.325 212.318 278.985 190.541 275.477 179.776C271.968 169.012 275.137 165.298 271.968 169.012C268.8 172.727 264.783 172.286 265.745 170.586C266.706 168.887 266.2 168.923 264.784 167.142C263.368 165.362 257.653 156.612 257.653 156.612L267.908 138.726C267.908 138.726 283.622 142.762 285.716 146.602C287.81 150.441 282.548 150.316 287.81 150.441C293.071 150.567 298.439 142.604 294.596 150.52C290.752 158.436 291.766 161.195 296.521 159.941C301.276 158.687 312.819 170.332 312.819 170.332L345.973 95.5157C347.64 91.7525 350.381 88.7097 353.767 86.8623C357.153 85.0148 360.993 84.4669 364.688 85.3039Z" fill="#DA6D5F"/>
<path d="M344.916 60.5C354.522 49.8124 354.522 32.4845 344.916 21.797C335.31 11.1094 319.735 11.1094 310.129 21.797C300.523 32.4845 300.523 49.8124 310.129 60.5C319.735 71.1875 335.31 71.1875 344.916 60.5Z" fill="#A0616A"/>
<path d="M356.286 11.3344C354.454 -4.28362 322.075 -3.28733 319.018 11.4067C317.396 10.2781 313.27 11.0593 311.732 12.3565C310.193 13.6536 309.207 15.5606 308.241 17.4117C306.923 19.9829 297.7 28.6814 296.318 26.1453C293.208 20.4379 287.108 32.9096 291.79 41.2597C292.912 43.2619 314.605 40.0478 316.695 39.5804C318.155 39.2576 315.656 39.8575 316.695 39.5804C317.031 37.7689 320.42 28.4094 319.619 26.7819C320.459 26.9674 321.252 27.3576 321.94 27.9242C322.629 28.4909 323.196 29.2201 323.601 30.0595C323.765 30.4111 329.697 80.0928 329.697 80.0928C331.319 80.3103 332.955 80.3557 334.584 80.2285C335.596 74.1142 335.78 67.866 335.13 61.6911C336.848 65.2205 338.207 68.9519 339.182 72.8162C339.741 74.9776 340.2 77.1693 340.558 79.3828C354.675 76.4456 373.76 66.329 377.242 49.151C358.205 42.0994 373.204 26.7606 356.286 11.3344Z" fill="#2F2E41"/>
<path d="M140.977 89.8166C141.292 87.4042 139.021 85.0395 135.904 84.535C132.787 84.0304 130.005 85.577 129.689 87.9894C129.374 90.4019 131.645 92.7666 134.762 93.2711C137.879 93.7757 140.661 92.229 140.977 89.8166Z" fill="#E6E6E6"/>
<path d="M178.088 85.7877C178.403 83.3753 176.132 81.0107 173.015 80.5061C169.898 80.0015 167.116 81.5481 166.8 83.9606C166.485 86.373 168.756 88.7377 171.873 89.2423C174.99 89.7468 177.772 88.2002 178.088 85.7877Z" fill="#3F3D56"/>
<path d="M130.815 56.3902C131.13 53.9778 128.859 51.6131 125.742 51.1085C122.625 50.6039 119.843 52.1506 119.527 54.563C119.212 56.9754 121.483 59.3401 124.6 59.8447C127.717 60.3492 130.499 58.8026 130.815 56.3902Z" fill="#DA6D5F" fill-opacity="0.5"/>
<path d="M114.689 42.6982C114.704 40.4835 113.594 38.6787 112.209 38.667C110.824 38.6554 109.69 40.4413 109.674 42.656C109.659 44.8707 110.77 46.6756 112.155 46.6872C113.539 46.6989 114.674 44.9129 114.689 42.6982Z" fill="#E6E6E6"/>
<path d="M109.221 17.1955C109.236 14.9808 108.125 13.176 106.741 13.1643C105.356 13.1527 104.221 14.9386 104.206 17.1533C104.191 19.368 105.301 21.1728 106.686 21.1845C108.071 21.1961 109.206 19.4102 109.221 17.1955Z" fill="#3F3D56"/>
<path d="M151.746 62.0785C151.761 59.8638 150.65 58.059 149.265 58.0473C147.881 58.0357 146.746 59.8216 146.731 62.0363C146.716 64.251 147.826 66.0558 149.211 66.0675C150.596 66.0791 151.73 64.2932 151.746 62.0785Z" fill="#E6E6E6"/>
<path d="M133.812 72.0406C133.827 69.8259 132.717 68.021 131.332 68.0094C129.947 67.9977 128.812 69.7837 128.797 71.9984C128.782 74.2131 129.893 76.0179 131.277 76.0295C132.662 76.0412 133.797 74.2553 133.812 72.0406Z" fill="#DA6D5F" fill-opacity="0.5"/>
<path d="M158.776 90.4531C158.791 88.2384 157.681 86.4335 156.296 86.4219C154.911 86.4102 153.777 88.1962 153.762 90.4109C153.746 92.6256 154.857 94.4304 156.242 94.4421C157.626 94.4537 158.761 92.6678 158.776 90.4531Z" fill="#3F3D56"/>
<path d="M244.448 114.002C244.787 113.733 244.571 112.75 243.965 111.806C243.359 110.863 242.593 110.317 242.254 110.587C241.914 110.857 242.131 111.84 242.737 112.783C243.343 113.726 244.109 114.272 244.448 114.002Z" fill="#3F3D56"/>
<path d="M242.184 110.644C242.523 110.374 242.307 109.391 241.701 108.448C241.095 107.504 240.328 106.959 239.989 107.228C239.65 107.498 239.867 108.481 240.473 109.424C241.079 110.367 241.845 110.913 242.184 110.644Z" fill="#3F3D56"/>
</svg>
