<svg width="522" height="488" viewBox="0 0 522 488" fill="none" xmlns="http://www.w3.org/2000/svg">
<path d="M130.707 472.709L139.654 471.616L139.995 433.998L126.791 435.609L130.707 472.709Z" fill="#FFB8B8"/>
<path d="M158 482.287L129.26 486L128 473.359L145.636 471.081C148.581 470.701 151.538 471.668 153.857 473.769C156.175 475.871 157.666 478.935 158 482.287Z" fill="#2F2E41"/>
<path d="M39.0014 475H47.8099L52 435L39 435.002L39.0014 475Z" fill="#FFB8B8"/>
<path d="M64.2988 486.754L36.0005 486.755L36 475.001L53.3649 475C56.2646 475 59.0456 476.238 61.0961 478.442C63.1467 480.647 64.2987 483.637 64.2988 486.754Z" fill="#2F2E41"/>
<path d="M103.299 305.134L108.44 323.112L136.349 388.041L143.693 449.63L126.801 450.419L116.519 393.568L81.2659 352.509L50.4196 459.894L36.4653 458.315C36.4653 458.315 48.2163 319.346 64.3739 305.134C64.3739 305.134 90.8136 291.711 103.299 305.134Z" fill="#2F2E41"/>
<path d="M80.4939 227.559C90.4563 227.559 98.5324 218.877 98.5324 208.166C98.5324 197.455 90.4563 188.773 80.4939 188.773C70.5316 188.773 62.4554 197.455 62.4554 208.166C62.4554 218.877 70.5316 227.559 80.4939 227.559Z" fill="#FFB8B8"/>
<path d="M105.135 308.687C105.135 308.687 107.338 228.148 76.4921 233.676C45.6458 239.203 58.4984 316.978 58.4984 316.978C58.4984 316.978 65.1083 331.19 81.2659 315.399C97.4235 299.607 105.135 308.687 105.135 308.687Z" fill="#CCCCCC"/>
<path opacity="0.2" d="M62.5381 267.629L69.7965 297.541L80.8549 309.43L65.4758 303.95L62.5381 267.629Z" fill="black"/>
<path d="M105.363 342.749C104.348 342.353 103.426 341.723 102.662 340.903C101.898 340.082 101.311 339.092 100.941 338.001C100.572 336.911 100.429 335.746 100.523 334.59C100.618 333.434 100.947 332.314 101.487 331.309L84.3318 309.956L97.856 308.063L112.074 328.631C113.584 329.719 114.67 331.365 115.126 333.256C115.583 335.148 115.378 337.154 114.551 338.894C113.724 340.634 112.332 341.988 110.638 342.698C108.945 343.409 107.068 343.427 105.363 342.749Z" fill="#FFB8B8"/>
<path d="M84.4753 250.08L86.4069 290.921L109.174 322.505L99.6267 330.401L68.7804 297.238C68.7804 297.238 57.7639 256.969 65.8427 245.125C68.8722 240.683 72.2116 239.462 75.2024 239.67C77.6632 239.89 79.9641 241.07 81.672 242.987C83.3799 244.905 84.3769 247.427 84.4753 250.08Z" fill="#CCCCCC"/>
<path d="M78.3485 228.543C78.4347 228.46 78.5016 228.357 78.5441 228.241C78.5866 228.125 78.6034 228.001 78.5932 227.877C78.583 227.753 78.546 227.633 78.4853 227.527C78.4246 227.422 78.3418 227.332 78.2434 227.267C76.6415 226.2 75.3364 224.69 74.4652 222.894C73.594 221.098 73.1888 219.082 73.2922 217.06C73.3956 215.037 74.0038 213.082 75.0528 211.399C76.1019 209.717 77.5531 208.369 79.254 207.497C84.5575 204.779 91.7439 206.894 95.6644 201.67C96.4617 200.552 97.0255 199.263 97.3173 197.89C97.6091 196.517 97.6222 195.092 97.3555 193.713C96.5096 188.779 93.0595 185.115 89.1957 182.604C84.4494 179.519 78.9943 177.925 73.4486 178.003C67.9028 178.08 62.4882 179.826 57.818 183.043C53.1479 186.259 49.4091 190.817 47.0252 196.201C44.6412 201.585 43.7075 207.579 44.3297 213.504C44.8285 218.253 46.1914 223.578 43.565 227.433C41.2535 230.826 36.8903 231.463 33.0576 232.306C24.837 234.114 16.9062 238.286 11.3275 245.025C5.74881 251.763 2.77274 261.218 4.45473 270.056C6.13672 278.894 12.8846 286.661 21.1783 288.031C27.9289 289.146 34.8995 286.064 39.8568 281.013C44.8141 275.962 47.9476 269.141 49.9241 262.112C52.27 253.77 53.1953 244.78 57.4306 237.349C61.5751 230.077 70.5065 224.864 77.5064 228.652C77.6405 228.727 77.7928 228.757 77.9431 228.738C78.0934 228.718 78.2347 228.651 78.3485 228.543Z" fill="#2F2E41"/>
<path d="M209.32 487H0.679612C0.499367 487 0.326495 487.053 0.199043 487.146C0.0715909 487.24 0 487.367 0 487.5C0 487.633 0.0715909 487.76 0.199043 487.854C0.326495 487.947 0.499367 488 0.679612 488H105H209.32C209.501 488 209.674 487.947 209.801 487.854C209.928 487.76 210 487.633 210 487.5C210 487.367 209.928 487.24 209.801 487.146C209.674 487.053 209.501 487 209.32 487Z" fill="#C5C4CF"/>
<g clip-path="url(#clip0_17_655)">
<path d="M396.877 103.182C397.137 103.456 397.467 103.642 397.824 103.717C398.182 103.792 398.552 103.753 398.889 103.605C399.588 103.276 400.228 102.822 400.783 102.26C401.242 101.894 401.632 101.437 401.931 100.913C402.096 100.6 402.201 100.256 402.242 99.8985C402.282 99.5415 402.256 99.1795 402.166 98.8332C402.038 98.5015 401.833 98.2104 401.571 97.9875C401.308 97.7646 400.998 97.6172 400.668 97.5593C399.739 97.2629 398.809 96.9666 397.88 96.6704L398.552 96.0189C397.86 95.6197 397.095 96.3605 396.663 97.2776C396.385 97.8764 396.192 98.5161 396.089 99.1758C395.942 99.865 395.936 100.58 396.072 101.272C396.208 101.964 396.483 102.616 396.877 103.182Z" fill="#E48A7F"/>
<path d="M413.285 97.26C413.547 97.5705 413.909 97.7622 414.298 97.7962C414.687 97.8302 415.073 97.7039 415.378 97.443C415.641 97.2309 415.859 96.9617 416.018 96.6529C416.178 96.3441 416.275 96.0026 416.304 95.6508C416.369 94.8647 416.008 93.9912 415.492 93.9233L415.61 93.1874C414.615 92.9943 413.392 92.9556 412.859 94.2541C412.679 94.7515 412.624 95.2908 412.699 95.8183C412.773 96.3458 412.976 96.843 413.285 97.26Z" fill="#E48A7F"/>
<path d="M345.673 150.198C349.1 150.198 351.877 146.193 351.877 141.254C351.877 136.314 349.1 132.31 345.673 132.31C342.247 132.31 339.469 136.314 339.469 141.254C339.469 146.193 342.247 150.198 345.673 150.198Z" fill="#FFC0B8"/>
<path d="M459.047 260.95C462.009 260.102 463.966 257.619 463.417 255.404C462.868 253.188 460.022 252.08 457.06 252.928C454.098 253.776 452.142 256.259 452.691 258.475C453.24 260.69 456.086 261.798 459.047 260.95Z" fill="#C1C0C9"/>
<path d="M422.771 261.671C425.732 260.823 427.689 258.34 427.14 256.125C426.591 253.91 423.745 252.801 420.783 253.649C417.822 254.497 415.865 256.981 416.414 259.196C416.963 261.411 419.809 262.519 422.771 261.671Z" fill="#FFC0B8"/>
<path d="M465.492 228.5C468.454 227.652 470.41 225.169 469.862 222.953C469.313 220.738 466.467 219.63 463.505 220.478C460.543 221.326 458.587 223.809 459.136 226.024C459.685 228.24 462.53 229.348 465.492 228.5Z" fill="#2F2E41"/>
<path d="M476.192 214.706C477.53 214.528 478.42 212.708 478.182 210.641C477.944 208.574 476.666 207.043 475.329 207.221C473.992 207.4 473.101 209.22 473.339 211.286C473.578 213.353 474.855 214.884 476.192 214.706Z" fill="#C1C0C9"/>
<path d="M478.901 190.224C480.238 190.046 481.129 188.226 480.891 186.159C480.653 184.092 479.375 182.561 478.038 182.74C476.701 182.918 475.81 184.738 476.048 186.805C476.286 188.872 477.564 190.403 478.901 190.224Z" fill="#FFC0B8"/>
<path d="M442.332 237.287C443.669 237.109 444.56 235.289 444.322 233.222C444.083 231.155 442.806 229.624 441.469 229.802C440.131 229.981 439.24 231.801 439.479 233.868C439.717 235.934 440.994 237.465 442.332 237.287Z" fill="#2F2E41"/>
<path d="M460.673 244.424C462.01 244.246 462.901 242.426 462.663 240.359C462.425 238.293 461.147 236.762 459.81 236.94C458.473 237.118 457.582 238.938 457.82 241.005C458.058 243.072 459.336 244.603 460.673 244.424Z" fill="#FFC0B8"/>
<path d="M438.403 264.64C439.741 264.462 440.632 262.642 440.393 260.575C440.155 258.508 438.877 256.977 437.54 257.155C436.203 257.334 435.312 259.154 435.55 261.22C435.789 263.287 437.066 264.818 438.403 264.64Z" fill="#C1C0C9"/>
<path d="M278.722 228.196C281.684 227.348 283.64 224.865 283.091 222.65C282.543 220.435 279.697 219.326 276.735 220.174C273.773 221.022 271.817 223.506 272.365 225.721C272.914 227.936 275.76 229.044 278.722 228.196Z" fill="#FFC0B8"/>
<path d="M242.443 228.919C245.405 228.071 247.361 225.588 246.813 223.372C246.264 221.157 243.418 220.049 240.456 220.897C237.494 221.745 235.538 224.228 236.087 226.443C236.636 228.659 239.481 229.767 242.443 228.919Z" fill="#2F2E41"/>
<path d="M285.168 195.745C288.13 194.897 290.086 192.414 289.537 190.199C288.989 187.983 286.143 186.875 283.181 187.723C280.219 188.571 278.263 191.055 278.812 193.27C279.36 195.485 282.206 196.593 285.168 195.745Z" fill="#2F2E41"/>
<path d="M295.867 181.952C297.204 181.774 298.095 179.954 297.857 177.887C297.618 175.82 296.341 174.289 295.004 174.468C293.666 174.646 292.775 176.466 293.014 178.533C293.252 180.6 294.529 182.131 295.867 181.952Z" fill="#C1C0C9"/>
<path d="M298.575 157.471C299.913 157.292 300.804 155.472 300.565 153.406C300.327 151.339 299.05 149.808 297.712 149.986C296.375 150.164 295.484 151.984 295.722 154.051C295.961 156.118 297.238 157.649 298.575 157.471Z" fill="#2F2E41"/>
<path d="M262.006 204.533C263.344 204.355 264.235 202.535 263.996 200.468C263.758 198.402 262.481 196.871 261.143 197.049C259.806 197.227 258.915 199.047 259.153 201.114C259.392 203.181 260.669 204.712 262.006 204.533Z" fill="#2F2E41"/>
<path d="M280.348 211.671C281.685 211.493 282.576 209.673 282.338 207.606C282.099 205.539 280.822 204.008 279.484 204.186C278.147 204.365 277.256 206.184 277.495 208.251C277.733 210.318 279.01 211.849 280.348 211.671Z" fill="#FFC0B8"/>
<path d="M258.078 231.886C259.415 231.708 260.306 229.888 260.068 227.821C259.829 225.754 258.552 224.223 257.215 224.402C255.877 224.58 254.986 226.4 255.225 228.467C255.463 230.534 256.74 232.065 258.078 231.886Z" fill="#C1C0C9"/>
<path d="M499.13 78.2244C502.092 77.3764 504.048 74.8931 503.5 72.678C502.951 70.4628 500.105 69.3545 497.143 70.2025C494.181 71.0506 492.225 73.5338 492.774 75.749C493.322 77.9642 496.168 79.0725 499.13 78.2244Z" fill="#2F2E41"/>
<path d="M462.852 78.9469C465.813 78.0989 467.77 75.6156 467.221 73.4005C466.672 71.1853 463.826 70.077 460.864 70.9251C457.903 71.7731 455.946 74.2563 456.495 76.4715C457.044 78.6867 459.89 79.795 462.852 78.9469Z" fill="#FFC0B8"/>
<path d="M505.576 45.7724C508.538 44.9243 510.494 42.4411 509.946 40.2259C509.397 38.0107 506.551 36.9024 503.589 37.7505C500.627 38.5985 498.671 41.0818 499.22 43.297C499.768 45.5121 502.614 46.6204 505.576 45.7724Z" fill="#2F2E41"/>
<path d="M516.275 31.9803C517.612 31.802 518.503 29.9821 518.265 27.9152C518.027 25.8484 516.749 24.3175 515.412 24.4957C514.074 24.674 513.184 26.494 513.422 28.5608C513.66 30.6276 514.938 32.1586 516.275 31.9803Z" fill="#C1C0C9"/>
<path d="M518.984 7.49873C520.321 7.32047 521.212 5.50048 520.974 3.43366C520.735 1.36685 519.458 -0.164123 518.121 0.0141392C516.783 0.192401 515.892 2.01239 516.131 4.07921C516.369 6.14602 517.647 7.677 518.984 7.49873Z" fill="#2F2E41"/>
<path d="M482.414 54.5615C483.752 54.3832 484.643 52.5632 484.404 50.4964C484.166 48.4296 482.889 46.8986 481.551 47.0769C480.214 47.2552 479.323 49.0751 479.561 51.142C479.8 53.2088 481.077 54.7397 482.414 54.5615Z" fill="#C1C0C9"/>
<path d="M500.756 61.6988C502.093 61.5205 502.984 59.7005 502.746 57.6337C502.507 55.5669 501.23 54.036 499.893 54.2142C498.555 54.3925 497.665 56.2125 497.903 58.2793C498.141 60.3461 499.419 61.8771 500.756 61.6988Z" fill="#2F2E41"/>
<path d="M478.486 81.9144C479.823 81.7361 480.714 79.9161 480.476 77.8493C480.238 75.7825 478.96 74.2515 477.623 74.4298C476.286 74.6081 475.395 76.428 475.633 78.4948C475.871 80.5617 477.149 82.0926 478.486 81.9144Z" fill="#C1C0C9"/>
<path d="M485 155.175C484.957 177.395 476.649 198.796 461.711 215.169C446.773 231.542 426.285 241.704 404.275 243.656C382.265 245.608 360.325 239.209 342.768 225.718C325.211 212.227 313.307 192.619 309.397 170.749C305.487 148.879 309.853 126.33 321.638 107.533C333.422 88.7368 351.772 75.0534 373.08 69.1731C394.388 63.2927 417.113 65.6409 436.786 75.756C456.46 85.871 471.66 103.021 479.397 123.835C479.59 124.357 479.778 124.88 479.961 125.408V125.413C480.778 127.732 481.497 130.095 482.119 132.501C484.038 139.904 485.006 147.524 485 155.175Z" fill="#3F3D56"/>
<path d="M381.911 95.3177C378.141 93.1259 373.956 91.8887 369.674 91.7003C365.391 91.512 361.126 92.3775 357.202 94.2308C353.747 95.8473 350.109 98.747 348.957 103.983C353.618 101.026 359.652 105.699 360.851 113.195L360.571 113.278C359.938 118.47 361.352 124.123 364.09 127.342C364.294 125.89 364.796 124.504 365.56 123.286C366.324 122.068 367.33 121.048 368.507 120.301C370.518 118.879 372.744 117.846 374.279 115.402C376.099 112.505 376.562 108.271 377.285 104.408C378.008 100.546 379.38 96.394 381.911 95.3177Z" fill="#E48A7F"/>
<path d="M354.819 141.501C353.528 143.586 351.804 144.893 350.257 146.522C348.47 148.269 347.299 150.624 346.938 153.191C346.743 155.004 347.046 156.848 347.004 158.682C346.962 160.516 346.393 162.58 345.233 163.036C343.401 163.747 342.003 160.09 340.12 159.834C338.624 159.634 337.278 162.164 337.711 164.359C338.144 166.553 340.181 167.525 341.351 166.092C342.409 168.001 341.663 171.464 340.074 172.05C339.906 173.252 339.738 174.45 339.575 175.652C335.558 172.631 331.499 169.56 328.083 165.135C324.283 160.257 321.927 154.269 321.316 147.94C320.873 142.854 321.53 137.037 319.358 133.124C317.62 129.992 314.637 129.301 311.953 129.496C312.442 129.431 311.464 129.531 311.953 129.496C313.536 124.385 314.074 119.598 316.487 114.876C317.034 114.624 317.541 114.284 317.993 113.869C320.491 111.589 321.6 106.975 323.627 103.783C323.758 103.577 323.893 103.377 324.033 103.182C326.106 100.271 328.884 98.7725 331.568 97.3796C337.51 94.2782 343.625 91.1366 349.898 91.5675L348.113 91.7529C346.03 98.0259 343.945 104.299 341.858 110.572C341.542 111.534 341.222 112.498 340.898 113.463C339.715 117.03 338.494 120.828 338.676 124.822C338.783 127.186 339.547 129.712 341.001 130.523C342.357 131.275 343.839 130.353 345.149 129.441C345.703 129.06 346.253 128.68 346.808 128.294C348.798 126.916 351.002 125.503 353.104 126.425C355.029 127.267 356.45 130.077 356.72 133.109C356.968 136.055 356.3 139.007 354.819 141.501Z" fill="#E48A7F"/>
<path d="M367.655 182.329C361.843 178.481 356.031 174.634 350.219 170.787L350.317 170.514C346.704 171.993 345.203 178.899 345.801 184.547C346.398 190.194 348.423 195.243 349.446 200.746C350.825 208.276 350.305 216.066 347.938 223.307C355.58 214.088 362.344 204.068 368.127 193.398C368.935 192.053 369.55 190.586 369.953 189.045C370.38 187.402 370.228 185.648 369.526 184.119C369.05 183.364 368.407 182.749 367.655 182.329Z" fill="#E48A7F"/>
<path d="M344.717 112.336C344.034 113.911 343.929 115.705 344.422 117.36C344.996 118.694 346.036 119.73 347.317 120.242L350.528 121.954C351.596 122.523 352.748 123.098 353.837 122.63C355.151 122.065 356.061 119.851 355.826 117.795C355.575 115.608 354.293 114.103 353.107 112.822C351.447 111.029 349.787 109.236 348.127 107.443L347.192 108.675C346.18 109.736 345.343 110.974 344.717 112.336Z" fill="#E48A7F"/>
<path d="M465.712 133.384C467.32 133.774 468.928 134.164 470.536 134.554C470.256 140.151 467.564 145.331 463.954 147.207C462.45 147.987 460.775 148.276 459.53 149.735C458.405 151.061 457.834 153.124 457.31 155.097C456.392 158.539 455.474 161.982 454.556 165.424C453.571 169.134 452.305 173.255 449.743 174.592C447.544 175.741 445.029 174.335 443.338 171.978C441.647 169.621 440.615 166.451 439.614 163.361C439.676 166.729 438.157 170.032 436.004 171.203C433.847 172.373 431.222 171.315 429.781 168.701C428.743 166.825 428.313 164.35 427.296 162.447C426.28 160.544 424.148 159.454 423.038 161.239C422.307 162.426 422.4 164.243 422.037 165.75C421.855 166.751 421.374 167.668 420.662 168.375C419.95 169.081 419.042 169.54 418.065 169.69C417.166 169.669 416.281 169.459 415.463 169.074C414.645 168.689 413.912 168.137 413.309 167.45C410.133 164.102 408.065 159.804 407.401 155.172C406.951 152.951 407.008 150.652 407.567 148.458C408.205 146.379 409.745 144.775 411.275 145.17C412.282 142.979 410.295 140.071 408.506 140.327C406.711 140.584 405.306 142.567 403.833 144.091C402.365 145.614 400.311 146.721 398.833 145.208C398.866 145.761 398.685 146.305 398.328 146.721C397.972 147.136 397.47 147.389 396.934 147.423C396.88 147.426 396.827 147.427 396.774 147.426C395.791 147.135 394.878 146.637 394.093 145.962C390.706 143.786 386.406 145.229 384 149.345C385.504 142.749 387.708 135.18 392.329 133.629C394.217 132.993 396.276 133.517 398.06 132.416C401.219 130.465 401.857 123.093 399.129 120.052C399.476 122.928 399.409 126.285 397.936 128.252C396.463 130.219 393.372 128.936 393.559 126.028C393.517 126.437 393.35 126.822 393.083 127.128C392.816 127.433 392.462 127.644 392.072 127.729C391.681 127.815 391.275 127.77 390.91 127.603C390.546 127.436 390.242 127.154 390.042 126.798C389.062 125.259 389.145 122.741 389.84 120.902C390.556 119.236 391.584 117.733 392.864 116.476C395.327 113.755 397.827 111.002 400.68 109.292C403.537 107.581 406.836 107.004 409.699 108.704C411.208 109.602 412.536 111.098 414.076 111.889C414.438 112.121 414.841 112.277 415.261 112.348C415.682 112.419 416.111 112.404 416.526 112.304C416.941 112.204 417.333 112.02 417.679 111.764C418.025 111.508 418.318 111.184 418.543 110.811C418.56 110.783 418.577 110.753 418.594 110.724C419.74 108.65 419.2 105.571 419.626 102.979C420.388 98.3975 424.833 96.254 427.296 99.2795C425.455 98.7931 423.552 101.038 423.324 103.759C423.09 106.48 424.423 109.227 426.207 110.051C429.205 111.419 432.141 107.977 434.407 104.791C436.772 101.455 439.141 98.1213 441.513 94.7893C441.891 94.222 442.316 93.6891 442.783 93.1964C443.526 92.4501 444.516 92.0227 445.553 92.0009C446.591 91.9791 447.597 92.3644 448.369 93.0788C450.765 95.094 451.89 99.2261 453.856 102.07C456.709 106.202 460.977 107.207 464.95 108.009C467.911 108.602 470.874 109.199 473.84 109.799C475.816 113.589 477.54 117.513 479 121.543C473.563 124.099 468.951 128.208 465.712 133.384Z" fill="#E48A7F"/>
<path d="M474.295 198.865C472.056 203.104 464.655 211.787 461.811 215.588C460.18 214.724 455.587 209.83 453.946 211.032C452.232 212.291 450.19 213.496 448.579 212.17C446.933 210.813 446.578 207.255 447.28 204.489C448.051 201.945 449.282 199.586 450.901 197.547C452.424 195.385 454.048 193.143 456.038 192.382C458.032 191.621 460.461 192.992 460.861 195.996L462.241 196.023C461.533 194.839 462.071 192.501 463.132 192.144C464.355 191.726 465.293 193.55 465.913 195.151C466.189 195.874 474.033 198.127 474.295 198.865Z" fill="#E48A7F"/>
<path d="M413.531 174.84C410.566 175.04 408.217 171.116 406.656 167.255C405.096 163.395 403.672 158.98 400.996 157.015C399.467 155.892 397.725 155.738 396.066 155.194C395.126 154.938 394.256 154.446 393.528 153.757C392.8 153.067 392.235 152.202 391.88 151.231L389.999 150.414C387.368 151.828 384.959 153.675 382.858 155.888C380.457 158.63 378.962 162.144 378.603 165.89C378.243 169.937 379.57 174.451 382.049 175.971C384.008 177.173 386.289 176.415 388.273 177.515C390.752 178.889 392.224 182.881 392.781 186.823C393.338 190.764 393.197 194.86 393.596 198.846C393.994 202.832 395.093 206.98 397.366 209.023C400.211 211.579 404.386 209.455 405.662 204.802C406.288 202.519 406.267 199.944 406.735 197.574C407.56 193.402 409.785 190.306 411.55 186.883C413.315 183.461 414.705 178.812 413.531 174.84Z" fill="#E48A7F"/>
<path d="M384.231 133.839C384.508 134.113 384.766 134.407 385.003 134.72C385.249 135.176 385.375 135.696 385.367 136.222C385.358 136.749 385.216 137.264 384.956 137.71C385.313 137.688 385.662 137.587 385.981 137.413C386.3 137.239 386.582 136.995 386.809 136.698C387.35 136.035 387.826 135.314 388.23 134.546C388.419 134.283 388.555 133.98 388.627 133.657C388.699 133.333 388.706 132.997 388.648 132.67C388.508 132.24 388.177 132.057 387.945 131.733C387.623 131.101 387.403 130.415 387.295 129.704C387.166 129.038 386.867 128.423 386.431 127.929C385.996 127.436 385.44 127.082 384.828 126.909L384.977 126.94C384.724 127.101 384.524 127.343 384.406 127.633C384.287 127.922 384.256 128.244 384.316 128.554C384.406 129.179 384.78 129.698 384.743 130.336C384.69 131.253 383.837 131.683 383.784 132.6C383.776 133.06 383.937 133.505 384.231 133.839Z" fill="#E48A7F"/>
<path d="M379.151 118.257L379.164 118.254C379.256 118.164 379.34 118.068 379.417 117.964L379.151 118.257Z" fill="#E48A7F"/>
<path d="M380.04 122.561C380.397 122.225 380.66 121.79 380.802 121.304C380.944 120.818 380.959 120.3 380.845 119.805C380.63 118.762 379.868 118.061 379.164 118.254C378.96 118.476 378.707 118.639 378.428 118.727C378.15 118.816 377.855 118.826 377.571 118.758C377.137 118.638 376.659 118.328 376.282 118.68C376.067 118.943 375.916 119.26 375.843 119.602C375.704 120.062 375.564 120.523 375.424 120.984C375.358 121.148 375.341 121.331 375.375 121.507C375.402 121.578 375.445 121.64 375.5 121.687C375.556 121.734 375.621 121.765 375.691 121.778L378.203 122.574C378.492 122.717 378.806 122.789 379.123 122.787C379.441 122.785 379.754 122.708 380.04 122.561Z" fill="#E48A7F"/>
<path d="M443.255 181.984C442.868 181.302 442.481 180.621 442.094 179.94C441.713 179.151 441.194 178.449 440.563 177.874C440.288 177.626 439.932 177.506 439.574 177.54C439.215 177.574 438.884 177.759 438.653 178.056L438.633 178.082L438.68 178.471C439.717 179.666 440.423 181.147 440.72 182.749C440.808 183.446 440.777 184.166 440.855 184.866C440.863 185.19 440.93 185.509 441.053 185.806C441.177 186.102 441.353 186.369 441.572 186.592C442.181 187.03 442.897 186.384 443.331 185.597C443.719 184.95 443.893 184.181 443.825 183.415C443.728 182.901 443.534 182.414 443.255 181.984Z" fill="#E48A7F"/>
<path d="M449.327 182.87C449.401 182.233 449.352 181.585 449.185 180.968C449.157 180.133 449.363 179.309 449.776 178.601C450.186 177.933 450.497 177.201 450.697 176.43C450.781 176.079 450.766 175.709 450.653 175.367C450.525 175.058 450.214 174.917 450.036 175.162L450.417 175.425C449.903 175.327 449.375 175.354 448.871 175.506C448.584 175.624 448.328 175.815 448.124 176.062C447.92 176.309 447.775 176.605 447.7 176.926C447.637 177.425 447.534 177.918 447.393 178.399C447.165 178.901 446.725 179.068 446.449 179.509C446.261 179.9 446.165 180.335 446.172 180.775C446.179 181.215 446.287 181.646 446.488 182.03C446.835 182.658 447.387 183.124 448.036 183.339C448.501 183.518 449.114 183.528 449.327 182.87Z" fill="#E48A7F"/>
<path d="M460.14 186.378C460.308 186.848 460.533 187.293 460.81 187.7C461.328 188.261 462.031 187.916 462.659 187.78C463.229 187.683 463.813 187.754 464.348 187.985C464.884 188.216 465.351 188.598 465.701 189.091C465.457 187.786 464.926 186.562 464.151 185.522C463.376 184.483 462.381 183.659 461.248 183.119C459.776 182.571 458.226 182.311 456.669 182.349L456.403 182.422C457.081 184.543 459.208 184.496 460.14 186.378Z" fill="#E48A7F"/>
<path d="M414.342 190.716L414.346 190.725L414.423 190.565L414.342 190.716Z" fill="#E48A7F"/>
<path d="M412.702 194.129C412.344 194.827 412.036 195.554 411.781 196.303C411.444 197.515 411.22 198.761 411.114 200.022C411.031 200.738 411.005 201.654 411.423 202.003C411.543 202.089 411.688 202.124 411.83 202.104C411.973 202.083 412.104 202.007 412.198 201.89C412.43 201.626 412.62 201.323 412.76 200.992C413.581 199.472 414.218 197.846 414.657 196.152C415.114 194.356 415.005 192.447 414.346 190.725C413.798 191.86 413.25 192.994 412.702 194.129Z" fill="#E48A7F"/>
<path d="M267.821 233.745C261.886 233.745 258.027 232.159 256.319 229.007C252.951 222.791 258.592 211.884 273.085 196.59L274.302 197.923C260.84 212.131 254.987 222.836 257.821 228.067C259.614 231.375 264.951 232.561 273.258 231.495C281.504 230.436 292.433 227.282 305.74 222.119C333.135 211.489 367.505 193.559 402.519 171.632C437.531 149.705 468.992 126.407 491.107 106.03C495.355 102.115 499.21 98.3493 502.565 94.8376C506.97 90.34 511.033 85.4714 514.716 80.2782C519.677 73.037 521.351 67.4605 519.558 64.1513C516.563 58.6242 503.982 59.1439 484.131 65.6167L483.627 63.8286C504.925 56.8851 517.519 56.6768 521.059 63.211C523.259 67.2707 521.596 73.3859 516.116 81.3864C512.376 86.6618 508.25 91.6075 503.778 96.1763C500.396 99.7157 496.514 103.508 492.238 107.449C470.046 127.897 438.494 151.265 403.393 173.246C368.292 195.229 333.821 213.21 306.33 223.876C292.899 229.087 281.841 232.275 273.464 233.35C271.592 233.601 269.708 233.733 267.821 233.745Z" fill="#3F3D56"/>
</g>
<defs>
<clipPath id="clip0_17_655">
<rect width="501" height="425" fill="white" transform="translate(21)"/>
</clipPath>
</defs>
</svg>
