<svg width="32" height="32" viewBox="0 0 32 32" fill="none" xmlns="http://www.w3.org/2000/svg">
<g clip-path="url(#clip0_34_686)">
<mask id="mask0_34_686" style="mask-type:luminance" maskUnits="userSpaceOnUse" x="0" y="0" width="32" height="32">
<path d="M0 0H32V32H0V0Z" fill="white"/>
</mask>
<g mask="url(#mask0_34_686)">
<path d="M18.7613 10.1147L17.6573 11.2187C17.4096 11.4665 17.1154 11.663 16.7917 11.7971C16.468 11.9312 16.121 12.0001 15.7706 12H13.8853C13.3853 12 12.9053 12.1987 12.552 12.552C12.3768 12.7271 12.2379 12.9349 12.1431 13.1637C12.0483 13.3925 11.9996 13.6377 11.9996 13.8853C11.9996 14.133 12.0483 14.3782 12.1431 14.607C12.2379 14.8357 12.3768 15.0436 12.552 15.2187L14.9906 17.6573C15.4907 18.1573 16.1689 18.4381 16.876 18.4381C17.5831 18.4381 18.2612 18.1573 18.7613 17.6573L20.6466 15.7707L21.932 18.5987C22.0519 18.8629 22.2341 19.0941 22.4629 19.2725C22.6918 19.4509 22.9605 19.5711 23.246 19.6229C23.5315 19.6747 23.8253 19.6565 24.1022 19.5698C24.3791 19.4831 24.6309 19.3306 24.836 19.1253C25.172 18.7893 25.3613 18.332 25.3613 17.856V12.1627C25.3612 11.8123 25.4301 11.4653 25.5642 11.1416C25.6983 10.8179 25.8948 10.5237 26.1426 10.276L29.132 7.28534C29.7613 6.65868 30.6413 5.02268 29.132 3.51468C27.624 2.00668 25.9893 2.88668 25.3613 3.51468L23.004 5.87201M18.7613 10.1147L16.068 9.21601C15.7559 9.11188 15.4756 8.92974 15.2537 8.68687C15.0318 8.444 14.8757 8.14846 14.8001 7.82829C14.7245 7.50813 14.7319 7.17395 14.8218 6.85748C14.9116 6.541 15.0808 6.25273 15.3133 6.02001C15.5078 5.82544 15.7417 5.67469 15.9993 5.57788C16.2568 5.48107 16.5321 5.44043 16.8066 5.45868L23.004 5.87201M18.7613 10.1147L23.004 5.87201M2.66663 19.8733C3.60663 18.228 5.09996 16.78 6.66663 15.6013M2.66663 29.872C4.09596 25.8693 6.73996 22.4533 9.36396 19.872M9.99996 28.5387C10.9613 26.616 12.6133 24.436 14.116 22.6653" stroke="#444B69" stroke-width="2.66667" stroke-linecap="round" stroke-linejoin="round"/>
</g>
</g>
<defs>
<clipPath id="clip0_34_686">
<rect width="32" height="32" fill="white"/>
</clipPath>
</defs>
</svg>
