<svg width="32" height="32" viewBox="0 0 32 32" fill="none" xmlns="http://www.w3.org/2000/svg">
<path d="M20 10.6667V8.00004C20 7.2928 19.719 6.61452 19.219 6.11442C18.7189 5.61433 18.0406 5.33337 17.3333 5.33337H14.6667C13.9594 5.33337 13.2811 5.61433 12.781 6.11442C12.281 6.61452 12 7.2928 12 8.00004V10.6667M20 10.6667H25.3333C26.0406 10.6667 26.7189 10.9477 27.219 11.4478C27.719 11.9479 28 12.6261 28 13.3334V17.3334M20 10.6667H12M12 10.6667H6.66667C5.95942 10.6667 5.28115 10.9477 4.78105 11.4478C4.28095 11.9479 4 12.6261 4 13.3334V17.3334M28 17.3334V24C28 24.7073 27.719 25.3856 27.219 25.8857C26.7189 26.3858 26.0406 26.6667 25.3333 26.6667H6.66667C5.95942 26.6667 5.28115 26.3858 4.78105 25.8857C4.28095 25.3856 4 24.7073 4 24V17.3334M28 17.3334H18.6667M4 17.3334H13.3333M13.3333 17.3334V14.6667H18.6667V17.3334M13.3333 17.3334V20H18.6667V17.3334" stroke="#444B69" stroke-width="2.66667" stroke-linecap="round" stroke-linejoin="round"/>
</svg>
