<svg width="32" height="32" viewBox="0 0 32 32" fill="none" xmlns="http://www.w3.org/2000/svg">
<path d="M10.6666 24.96C8.45196 26.8453 6.42663 28 2.66663 28C3.99996 26.6667 5.69329 24.8667 6.40129 22.0707C4.08929 20.152 2.66663 17.5427 2.66663 14.6667C2.66663 8.776 8.63596 4 16 4C22.8 4 28.4106 8.072 29.2306 13.3333" stroke="#444B69" stroke-width="2.66667" stroke-linecap="round" stroke-linejoin="round"/>
<path d="M21.3333 26.5187C16.9146 26.5187 13.3333 23.8654 13.3333 20.592C13.3333 17.32 16.9146 14.6667 21.3333 14.6667C25.7519 14.6667 29.3333 17.32 29.3333 20.592C29.3333 22.1907 28.4799 23.64 27.0933 24.7054C27.5159 26.2587 28.5333 27.2587 29.3333 28C26.9333 28 25.7119 27.2747 24.2773 26.104C23.3653 26.3707 22.3733 26.5187 21.3333 26.5187Z" stroke="#444B69" stroke-width="2.66667" stroke-linecap="round" stroke-linejoin="round"/>
</svg>
