<svg width="358" height="309" viewBox="0 0 358 309" fill="none" xmlns="http://www.w3.org/2000/svg">
<path d="M164.396 0.943328C163.644 1.42184 163.508 2.72067 163.85 7.09567C164.328 13.4531 164.807 13.0429 157.766 13.6582L152.844 14.0683L152.023 8.18942L151.203 2.24216L147.648 2.72067C145.734 2.99411 143.889 3.47263 143.547 3.74606C143.205 4.08786 143.752 9.89841 144.777 17.3496C145.803 24.459 146.691 31.0215 146.76 31.8418C146.828 33.1406 147.101 33.2773 149.904 32.8672C151.545 32.6621 153.322 32.457 153.937 32.457C154.758 32.457 154.826 31.5683 154.416 26.6465L153.937 20.8359L158.449 20.6992C160.91 20.6992 163.371 20.6308 163.85 20.5625C164.396 20.4941 164.875 22.2715 165.285 25.7578L165.9 31.0898H170.275H174.65L174.24 28.834C173.898 26.7148 171.848 3.26755 171.848 1.28513C171.848 0.601531 170.959 0.328094 168.635 0.328094C166.789 0.328094 164.943 0.601531 164.396 0.943328Z" fill="#444B69"/>
<path d="M192.492 5.8652C187.024 15.709 179.709 30.2695 180.051 30.6113C180.256 30.748 182.238 31.0898 184.563 31.3633L188.732 31.8418L189.826 29.039C190.988 26.0312 190.92 26.0312 198.098 26.9883C202.951 27.6035 203.977 28.2871 203.977 30.8847C203.977 33.1406 205.549 34.3027 209.514 34.7812C211.428 35.0547 213.137 35.123 213.274 34.9863C213.547 34.7129 210.607 23.0918 207.19 10.9238L204.934 2.72067L199.943 2.03708L195.022 1.28513L192.492 5.8652ZM200.285 15.4355C201.652 20.7675 201.652 20.7675 198.371 20.084C196.731 19.8105 195.227 19.5371 194.885 19.4687C194.611 19.4687 195.363 17.623 196.525 15.2988C197.619 12.9746 198.781 11.2656 198.918 11.4707C199.123 11.6758 199.738 13.4531 200.285 15.4355Z" fill="#444B69"/>
<path d="M122.082 9.21484C116.34 10.9922 111.486 12.6328 111.281 12.7695C110.734 13.3848 113.332 19.4687 114.152 19.4687C114.563 19.4687 116.203 19.0586 117.707 18.5117C120.92 17.3496 120.168 16.1191 124.748 29.7227C126.32 34.4394 127.756 38.4043 127.893 38.541C128.234 39.0195 135.617 36.5586 135.617 36.0117C135.617 35.7383 134.113 30.8848 132.199 25.2793C130.354 19.6738 128.781 14.8887 128.781 14.6152C128.781 14.4102 130.49 13.8633 132.609 13.3848C136.027 12.5644 136.369 12.3594 136.027 11.0605C135.754 10.2402 135.412 8.73632 135.207 7.64257C134.934 6.54882 134.318 5.79687 133.635 5.86523C133.02 5.86523 127.824 7.36914 122.082 9.21484Z" fill="#444B69"/>
<path d="M220.52 8.32617C220.178 9.41992 219.631 10.7188 219.357 11.334C219.016 12.2227 219.631 12.7695 222.229 13.7266C224.006 14.3418 225.783 15.1621 226.125 15.4355C226.398 15.709 224.963 20.4258 222.844 25.9629C220.725 31.5 219.016 36.2168 219.016 36.4219C219.016 36.9004 225.1 39.293 226.33 39.293C226.74 39.293 228.654 34.6445 230.637 29.0391C232.551 23.3652 234.465 18.7852 234.807 18.7852C235.148 18.7852 236.584 19.2637 237.951 19.8105C241.301 21.2461 241.369 21.1777 242.941 18.1016C244.65 14.752 244.65 14.8203 242.463 13.9316C233.781 10.4453 222.844 6.48047 222.092 6.48047C221.613 6.48047 220.861 7.30078 220.52 8.32617Z" fill="#444B69"/>
<path d="M89.6113 22.5449C87.4921 23.707 85.5781 24.8691 85.4414 25.0058C85.2363 25.1425 84.621 28.3554 84.0058 32.1152C82.7753 40.1133 82.3652 41.4804 81.6816 41.0019C81.3398 40.8652 79.7675 38.4726 78.1953 35.7383C76.5546 33.0039 75.1875 30.6113 75.0507 30.5429C74.914 30.3379 69.9238 33.414 68.0781 34.9179C67.9414 34.9863 71.7011 40.9336 76.4179 48.1113L85.0312 61.1679L88.4492 58.9804C90.2949 57.75 91.8671 56.5195 91.8671 56.2461C91.8671 55.9726 90.6367 53.8535 89.1328 51.5293C87.6289 49.205 86.4667 47.2226 86.6035 47.0859C86.6718 47.0175 90.3632 47.7695 94.8066 48.8633L102.941 50.7773L106.359 48.4531L109.777 46.1289L106.769 44.8984C105.197 44.1465 100.822 42.6425 97.1992 41.4121C90.7734 39.2929 90.5683 39.1562 90.9101 37.3789C91.7304 33.1406 93.7812 20.4941 93.7128 20.4258C93.6445 20.3574 91.7988 21.3144 89.6113 22.5449Z" fill="#DA6D5F"/>
<path d="M260.783 25.3477C259.963 26.6465 259.348 28.0137 259.348 28.3555C259.348 28.6973 260.988 29.9961 262.971 31.2266L266.594 33.4141L261.057 42.3691C258.049 47.2227 255.314 51.5977 255.041 52.0078C254.768 52.4863 256.066 53.7852 258.322 55.2891L262.014 57.75L262.834 56.1777C263.244 55.3574 265.91 50.9141 268.781 46.334L273.977 37.9941L276.916 39.7715C278.557 40.7285 280.266 41.3438 280.744 41.1387C281.223 41.002 282.18 39.7031 282.932 38.3359C284.23 35.9434 284.23 35.875 282.932 34.918C281.428 33.8242 262.834 22.8867 262.492 22.8867C262.355 22.8867 261.603 23.9805 260.783 25.3477Z" fill="#DA6D5F"/>
<path d="M291.135 48.4531C287.375 50.0938 280.471 53.3066 275.822 55.6309L267.346 59.9375L270.354 62.9453C271.994 64.5859 273.635 65.9531 274.045 65.8848C274.387 65.8848 275.822 65.1328 277.121 64.3125L279.514 62.7402L284.094 66.5C286.691 68.6191 288.742 70.3965 288.742 70.4649C288.742 70.6016 288.059 71.832 287.238 73.1992L285.734 75.7285L288.469 78.0527C292.707 81.7441 293.459 82.0176 294.143 80.1719C294.484 79.2832 297.287 72.4473 300.295 64.9277L305.832 51.2559L302.619 48.3848C300.773 46.7441 299.064 45.4453 298.654 45.4453C298.312 45.4453 294.895 46.8125 291.135 48.4531ZM295.578 55.6992C295.578 56.793 292.229 63.2188 291.613 63.2188C291.34 63.2188 290.246 62.3984 289.152 61.4414C287.512 60.0059 287.307 59.5274 288.127 59.0488C288.674 58.707 290.314 57.75 291.818 56.793C294.963 54.8789 295.578 54.7422 295.578 55.6992Z" fill="#DA6D5F"/>
<path d="M46.2715 52.3496L43.4688 55.2207L52.082 65.0645C56.8672 70.5332 61.3105 75.7285 61.9941 76.6172C62.6777 77.5059 63.5664 78.2578 63.9766 78.2578C64.6602 78.2578 79.5625 63.9707 79.5625 63.2871C79.5625 63.082 78.4004 61.7148 77.1016 60.2109L74.6406 57.6133L69.7188 62.4668L64.8652 67.252L57.3457 58.4336C53.2441 53.5801 49.6895 49.5469 49.4844 49.5469C49.2793 49.5469 47.8438 50.8457 46.2715 52.3496Z" fill="#DA6D5F"/>
<path d="M162.961 53.7168C142.795 55.8359 118.732 64.5176 102.053 75.6601C74.2988 94.2539 53.9961 121.666 46.4765 150.992C39.1621 179.156 42.6484 207.936 56.7988 236.168C62.4043 247.447 68.0097 255.172 77.5117 265.084C114.836 304.049 170.275 318.268 220.041 301.725C229.543 298.58 244.992 291.197 252.853 286.07C269.396 275.27 287.307 257.223 295.441 243.209C321.144 198.98 318.752 149.283 289.016 109.361C259.826 70.123 211.018 48.5898 162.961 53.7168ZM226.193 103.756C234.191 105.875 245.197 111.07 251.691 115.65C257.57 119.82 267.072 129.254 271.105 134.996C280.607 148.463 285.324 163.297 285.324 179.771C285.324 194.332 282.658 205.748 276.506 217.506C263.244 242.662 239.797 257.633 211.359 259.205L203.977 259.615L200.285 264.537C189.484 278.893 172.941 290.992 162.687 292.018C158.176 292.496 153.186 291.061 148.811 287.984C143.205 284.156 140.061 278.209 138.01 267.477C136.643 260.367 135.959 258.727 134.387 258.727C131.652 258.727 119.143 254.283 113.264 251.207C82.7754 235.279 66.4375 202.467 71.6328 167.809C76.4863 135.816 101.437 109.84 134.25 102.594C137.873 101.773 146.144 101.637 179.025 101.773L219.357 101.842L226.193 103.756Z" fill="#444B69"/>
<path d="M135.891 123.717C127.961 125.426 117.775 130.895 111.828 136.637L108.889 139.439L160.021 139.781L211.154 140.123L215.051 142.037C223.732 146.275 229.816 154.684 231.32 164.391C233.166 176.559 226.809 188.453 215.803 193.648C211.906 195.426 211.496 195.494 195.5 195.836L179.162 196.178L172.941 206.568C169.523 212.311 166.516 217.027 166.174 217.027C165.9 217.027 163.303 212.242 160.432 206.432L155.236 195.836H124.27H93.3027L94.3281 199.391C96.9258 208.209 105.129 220.104 112.922 226.324C117.844 230.221 129.191 235.826 134.934 237.193C137.395 237.74 141.223 238.219 143.547 238.219H147.648L151.477 246.9C153.596 251.754 156.125 258.248 157.082 261.461C160.021 271.1 161.525 272.057 167.336 268.229C174.855 263.238 183.537 253.531 189.553 243.277L192.424 238.355L205.891 238.082C218.879 237.809 219.631 237.672 225.783 235.621C240.822 230.426 252.238 220.309 259.416 205.748C263.381 197.613 264.885 190.914 265.021 181.139C265.09 164.254 258.937 150.035 246.223 138.072C239.113 131.373 234.67 128.707 225.646 125.494L218.674 123.033L179.367 122.896C148.4 122.828 139.172 122.965 135.891 123.717Z" fill="#DA6D5F"/>
<path d="M151.477 160.289C146.965 163.092 145.461 168.014 147.785 172.594C152.092 181.139 164.26 178.951 165.422 169.381C166.379 161.998 157.834 156.461 151.477 160.289Z" fill="#444B69"/>
<path d="M190.51 160.221C187.502 162.135 186.066 164.527 186.066 167.945C185.861 177.516 196.73 181.617 202.541 174.234C205.549 170.406 205.002 164.937 201.242 161.314C198.576 158.717 193.654 158.238 190.51 160.221Z" fill="#444B69"/>
<path d="M309.182 75.6602L297.082 84.4785L304.328 93.502C308.293 98.4922 311.779 102.594 312.053 102.73C312.805 103.004 317.453 99.4492 317.453 98.6289C317.453 98.2871 315.607 95.5528 313.352 92.6133C311.096 89.6739 309.25 87.0762 309.25 86.8711C309.25 86.7344 313.078 83.7266 317.795 80.3086C322.443 76.8906 326.477 73.7461 326.75 73.4043C327.229 72.584 322.922 66.6367 321.896 66.7051C321.555 66.7735 315.812 70.7383 309.182 75.6602Z" fill="#DA6D5F"/>
<path d="M25.627 74.9082C24.0547 76.6855 22.8242 78.3945 22.8242 78.668C22.8242 79.2832 33.625 98.082 36.9746 103.346C38.2734 105.328 39.5039 106.969 39.8457 106.969C40.1875 106.969 41.5547 105.602 42.9902 103.893L45.5195 100.816L43.4004 97.9453C41.0762 94.8008 40.9395 95.2109 46.4766 89.0586L48.9375 86.2559L51.2617 87.418C52.5605 88.0332 53.9961 88.5117 54.4746 88.5117C54.9531 88.4434 56.5938 86.666 58.2344 84.5469L61.1738 80.6504L57.209 79.4199C55.0215 78.7363 47.6387 76.7539 40.8027 74.9082L28.4297 71.6953L25.627 74.9082ZM37.7266 82.6328C39.6406 83.3164 41.2812 84.0684 41.2812 84.2734C41.2129 84.8887 37.8633 88.7168 37.5898 88.4434C37.5215 88.3066 36.2227 86.5293 34.7871 84.4785C33.2832 82.4277 32.5312 80.9238 33.0781 81.1289C33.625 81.334 35.7441 82.0176 37.7266 82.6328Z" fill="#DA6D5F"/>
<path d="M12.3652 95.8262C10.3145 98.6973 0.949219 114.283 0.949219 114.898C0.949219 115.172 6.75977 118.59 7.23828 118.59C7.51172 118.59 8.46875 117.223 9.42578 115.582C10.4512 113.873 11.4766 112.369 11.8184 112.164C12.0918 111.959 14.4844 113.121 17.082 114.693C25.7637 120.094 31.1641 122.828 31.7109 122.281C31.9844 121.939 33.0098 120.231 34.0352 118.522L35.8125 115.377L34.3086 114.352C33.4199 113.805 29.25 111.412 24.9434 109.02C20.7051 106.627 17.082 104.234 16.877 103.756C16.6719 103.209 17.4238 101.295 18.5859 99.4493L20.6367 96.0996L17.9707 94.3907C16.5352 93.4336 15.168 92.6133 15.0312 92.6133C14.8945 92.6133 13.6641 94.0489 12.3652 95.8262Z" fill="#DA6D5F"/>
<path d="M337.961 95.2793C335.5 96.7148 329.279 100.338 324.152 103.346L314.855 108.746L316.838 112.438C317.932 114.42 318.957 116.266 319.162 116.402C319.299 116.607 321.623 115.582 324.221 114.215C331.604 110.318 331.945 110.729 327.023 117.496C325.178 120.094 323.605 122.691 323.674 123.307C323.674 123.922 324.357 125.904 325.178 127.75L326.75 131.1L334.064 122.555L341.379 114.01L347.941 116.334C351.564 117.564 355.256 118.59 356.213 118.59H357.854L355.393 113.941L352.863 109.361L346.438 107.379C342.883 106.285 340.012 105.191 340.012 104.918C340.012 104.713 341.721 103.688 343.771 102.662L347.463 100.816L345.07 96.7148C343.703 94.459 342.541 92.6133 342.473 92.6133C342.473 92.6816 340.422 93.8438 337.961 95.2793Z" fill="#DA6D5F"/>
</svg>
