<svg width="17" height="17" viewBox="0 0 17 17" fill="none" xmlns="http://www.w3.org/2000/svg">
<path d="M1.41666 3.73284L2.32333 2.83325L14.1667 14.6766L13.2671 15.5833L11.0854 13.4016C10.2708 13.6708 9.40666 13.8124 8.49999 13.8124C4.95833 13.8124 1.93374 11.6095 0.708328 8.49992C1.19708 7.25325 1.97624 6.15534 2.96791 5.28409L1.41666 3.73284ZM8.49999 6.37492C9.06358 6.37492 9.60408 6.5988 10.0026 6.99732C10.4011 7.39583 10.625 7.93633 10.625 8.49992C10.6254 8.74115 10.5846 8.98069 10.5046 9.20825L7.79166 6.49534C8.01923 6.41528 8.25876 6.37456 8.49999 6.37492ZM8.49999 3.18742C12.0417 3.18742 15.0662 5.39034 16.2917 8.49992C15.7132 9.96825 14.7309 11.2428 13.4583 12.1762L12.4525 11.1633C13.4321 10.4857 14.2221 9.56887 14.7475 8.49992C14.1749 7.33107 13.2859 6.34632 12.1815 5.65763C11.077 4.96893 9.80155 4.60392 8.49999 4.60409C7.72791 4.60409 6.96999 4.73159 6.26166 4.95825L5.17083 3.8745C6.19083 3.43534 7.31708 3.18742 8.49999 3.18742ZM2.25249 8.49992C2.82507 9.66876 3.71411 10.6535 4.81853 11.3422C5.92295 12.0309 7.19844 12.3959 8.49999 12.3958C8.98874 12.3958 9.47041 12.3462 9.91666 12.247L8.30166 10.6249C7.80878 10.5721 7.34883 10.3521 6.99831 10.0016C6.64779 9.65108 6.42783 9.19114 6.37499 8.69825L3.96666 6.28284C3.26541 6.88492 2.67749 7.63575 2.25249 8.49992Z" fill="#88888F"/>
</svg>
