<svg width="624" height="439" viewBox="0 0 624 439" fill="none" xmlns="http://www.w3.org/2000/svg">
<path d="M85.0675 77.3648C87.9543 78.9871 92.6134 72.5705 93.6693 75.7091C94.7251 78.8477 92.1678 91.5119 90.8485 94.5491C90.1927 96.0588 89.2657 97.4396 88.6222 98.9546C87.9788 100.47 87.6337 102.211 88.2025 103.756C89.1923 106.444 92.459 107.538 94.0787 109.9C95.9651 112.652 95.2032 116.358 94.3213 119.575C93.5612 122.349 92.7512 125.147 91.288 127.623C89.8248 130.098 87.6188 132.254 84.8624 133.073C81.3528 134.115 77.6018 132.876 74.2185 131.477C70.9656 130.132 67.7477 128.607 64.9811 126.431C62.2144 124.254 59.906 121.366 58.9389 117.981C57.7258 113.736 58.7393 109.09 60.8397 105.206C62.9401 101.322 66.0472 98.0864 69.2353 95.0317C74.6047 89.8868 80.3189 85.1018 86.3266 80.7193" fill="#2F2E41"/>
<path d="M102.985 229.773L180.022 258.954C180.022 258.954 186.442 265.373 187.609 276.462C188.777 287.551 210.37 350.581 210.37 350.581L191.695 357.584C191.695 357.584 160.179 309.144 161.93 289.302C161.93 289.302 158.429 279.945 156.678 279.663C154.927 279.38 128.664 265.957 111.74 267.708C94.8147 269.459 50.46 274.711 49.2928 254.285C48.1256 233.858 58.3618 233.858 58.3618 233.858L102.985 229.773Z" fill="#2F2E41"/>
<path d="M206.285 345.329C206.285 345.329 211.537 343.578 215.039 347.079C218.541 350.581 218.541 353.499 218.541 353.499C218.541 353.499 245.971 352.916 247.138 356.417C248.305 359.919 244.22 373.926 234.298 374.509C224.377 375.093 190.527 382.096 190.527 375.677C190.527 369.257 191.111 354.666 193.445 354.666C195.78 354.666 206.285 345.329 206.285 345.329Z" fill="#2F2E41"/>
<path d="M109.64 248.335L165.787 308.615C165.787 308.615 168.7 317.213 164.836 327.672C160.972 338.131 152.419 404.207 152.419 404.207L132.573 402.215C132.573 402.215 125.769 344.828 136.126 327.812C136.126 327.812 137.13 317.873 135.686 316.844C134.241 315.815 116.639 292.149 100.689 286.224C84.7387 280.298 42.6446 265.365 50.6442 246.534C58.6437 227.702 67.8214 232.236 67.8214 232.236L109.64 248.335Z" fill="#2F2E41"/>
<path d="M151.082 397.688C151.082 397.688 156.567 398.444 158.156 403.135C159.745 407.825 158.452 410.441 158.452 410.441C158.452 410.441 183.304 422.066 182.8 425.722C182.296 429.379 172.43 440.128 163.276 436.257C154.122 432.387 120.671 423.675 123.514 417.919C126.357 412.163 133.342 399.34 135.435 400.374C137.528 401.408 151.082 397.688 151.082 397.688Z" fill="#2F2E41"/>
<path d="M58.3388 124.431L77.0145 136.687L98.0246 168.785C98.0246 168.785 102.694 202.635 100.943 204.386C99.1918 206.137 99.7754 207.887 99.7754 211.389C99.7754 214.891 104.063 215.263 101.336 218.287C98.6082 221.311 96.3197 221.94 100.382 223.084C104.444 224.229 109.164 223.112 106.804 226.588C104.444 230.065 106.195 231.232 105.028 232.399C103.861 233.566 56.6125 283.467 47.8583 264.208C39.1041 244.948 38.496 171.12 38.496 171.12L44.8025 147.069L58.3388 124.431Z" fill="#CCCCCC"/>
<path d="M0.797075 261.927C-1.1901 268.647 0.666375 275.119 4.94312 276.383C9.21987 277.647 14.2964 273.224 16.2834 266.502C17.114 263.827 17.292 260.993 16.8025 258.236L24.8627 229.657L11.371 226.16L4.85748 254.705C2.94666 256.754 1.55434 259.23 0.797075 261.927Z" fill="#FFB6B6"/>
<path d="M77.6365 165.016C77.6365 165.016 55.8844 148.411 47.6041 158.883C39.3238 169.355 8.99121 215.846 8.99121 215.846L6.98041 233.563L24.1833 237.36L51.9882 196.388L77.6365 165.016Z" fill="#CCCCCC"/>
<path d="M186.992 100.483C191.981 95.5618 193.485 88.9986 190.352 85.8246C187.219 82.6505 180.637 84.0678 175.648 88.9919C173.628 90.9315 172.102 93.3267 171.197 95.977L150.325 117.097L160.445 126.681L179.947 104.842C182.61 103.973 185.026 102.478 186.992 100.483Z" fill="#FFB6B6"/>
<path d="M72.8778 148.168C72.8778 148.168 83.8909 173.22 96.2021 168.056C108.513 162.892 157.542 136.86 157.542 136.86L167.867 122.323L154.644 110.683L110.496 133.106L72.8778 148.168Z" fill="#CCCCCC"/>
<path d="M77.8564 119.451C89.425 119.451 98.8032 110.073 98.8032 98.5042C98.8032 86.9356 89.425 77.5574 77.8564 77.5574C66.2878 77.5574 56.9095 86.9356 56.9095 98.5042C56.9095 110.073 66.2878 119.451 77.8564 119.451Z" fill="#FFB6B6"/>
<path d="M54.2432 131.31C59.1323 138.284 61.6325 146.901 61.2356 155.409C66.7788 152.723 70.5201 147.05 71.7934 141.024C73.0667 134.998 72.0953 128.67 70.0492 122.861C70.0287 122.802 70.0081 122.744 69.9875 122.686C66.8807 113.966 69.7674 104.22 77.2713 98.7998C82.3328 95.1434 86.7226 90.5563 90.0919 85.2982C91.994 82.3298 93.6107 78.6061 92.1897 75.3796C90.8804 72.4065 87.4979 71.0169 84.3851 70.0871C77.2774 67.964 69.7253 66.7559 62.4299 68.0994C55.1344 69.4428 48.1114 73.6382 44.6635 80.2063C41.2156 86.7744 42.1188 95.7382 47.7152 100.607C45.9501 101.178 44.7012 103.049 44.8512 104.898C45.0011 106.747 46.535 108.392 48.369 108.671C47.1725 108.629 46.4662 110.205 46.8929 111.323C47.3196 112.442 48.42 113.137 49.4697 113.713C50.965 114.533 52.6225 115.39 52.6289 117.538C52.6314 118.4 52.3244 119.235 51.8226 119.935C50.6067 121.632 48.6435 122.395 46.7537 123.113C50.7508 124.29 53.938 127.862 54.6535 131.967" fill="#2F2E41"/>
<path d="M228.121 125.611C262.808 125.611 290.927 97.4921 290.927 62.8056C290.927 28.119 262.808 0 228.121 0C193.434 0 165.315 28.119 165.315 62.8056C165.315 97.4921 193.434 125.611 228.121 125.611Z" fill="#DA6D5F"/>
<path d="M224.866 63.1032L218.869 98.668L225.102 99.719L231.099 64.1542L224.866 63.1032Z" fill="white"/>
<path d="M248.113 85.0269L226.684 71.3283L201.948 77.2428L234.257 26.4165L248.113 85.0269Z" fill="white"/>
<path d="M84.0042 283.31L103.954 316.331L220.216 309.452L189.259 269.551L84.0042 283.31Z" fill="#F2F2F2"/>
<path d="M118.744 437.752C118.066 437.752 117.476 437.253 117.382 436.563L82.6411 182.835C82.5379 182.082 83.0647 181.388 83.8174 181.285C84.5699 181.176 85.2638 181.708 85.3673 182.461L120.108 436.19C120.211 436.943 119.685 437.637 118.932 437.74C118.868 437.748 118.806 437.752 118.744 437.752Z" fill="#F2F2F2"/>
<path d="M84.0042 438.075C83.2443 438.075 82.6283 437.459 82.6283 436.699V182.697C82.6283 181.937 83.2444 181.321 84.0042 181.321C84.764 181.321 85.3801 181.937 85.3801 182.697V436.699C85.3801 437.459 84.764 438.075 84.0042 438.075Z" fill="#F2F2F2"/>
<path d="M258.397 437.065C257.812 437.065 257.27 436.689 257.085 436.102L174.876 174.806C174.648 174.081 175.051 173.308 175.776 173.08C176.5 172.853 177.273 173.255 177.501 173.98L259.71 435.275C259.938 436 259.535 436.773 258.81 437.001C258.673 437.044 258.534 437.065 258.397 437.065Z" fill="#F2F2F2"/>
<path d="M233.286 437.387C232.672 437.387 232.112 436.973 231.954 436.35L174.855 205.738C174.668 205.002 175.113 204.253 175.849 204.066C176.588 203.879 177.334 204.324 177.522 205.06L234.621 435.672C234.808 436.408 234.363 437.157 233.627 437.345C233.513 437.374 233.399 437.387 233.286 437.387Z" fill="#F2F2F2"/>
<path d="M84.0042 186.743L179.284 185.278L196.826 285.373H85.38L84.0042 186.743Z" fill="#F2F2F2"/>
<path d="M427.079 428.215L413.79 425.138L419.332 372.415L438.945 376.956L427.079 428.215Z" fill="#A0616A"/>
<path d="M381.617 417.375C381.042 417.976 380.303 420.175 380.116 420.985C379.539 423.477 381.091 425.963 383.582 426.54L424.738 436.065C426.438 436.459 428.134 435.4 428.527 433.7L428.924 431.987C428.924 431.987 432.152 427.308 429.429 419.991C429.429 419.991 423.069 423.755 417.087 414.169L415.753 409.479L396.324 417.786L386.851 416.788C384.778 416.569 383.058 415.869 381.617 417.375Z" fill="#2F2E41"/>
<path d="M566.532 399.797L556.653 409.203L515.669 375.575L530.25 361.693L566.532 399.797Z" fill="#A0616A"/>
<path d="M532.474 431.802C532.66 432.613 534.09 434.439 534.663 435.042C536.427 436.893 539.357 436.965 541.209 435.202L571.801 406.07C573.064 404.867 573.113 402.868 571.91 401.605L570.697 400.331C570.697 400.331 568.565 395.062 560.956 393.311C560.956 393.311 560.602 400.693 549.305 400.417L544.655 398.95L540.906 419.746L534.862 427.108C533.54 428.719 532.009 429.771 532.474 431.802Z" fill="#2F2E41"/>
<path d="M622.625 301.111L605.16 330.018L503.384 323.995L530.484 289.066L622.625 301.111Z" fill="#F2F2F2"/>
<path d="M592.214 436.31C592.807 436.31 593.323 435.873 593.406 435.269L623.818 213.155C623.908 212.496 623.447 211.888 622.788 211.798C622.13 211.703 621.522 212.169 621.431 212.828L591.019 434.942C590.929 435.602 591.39 436.209 592.049 436.299C592.104 436.307 592.159 436.31 592.214 436.31Z" fill="#F2F2F2"/>
<path d="M622.625 436.593C623.29 436.593 623.829 436.053 623.829 435.388V213.034C623.829 212.369 623.29 211.83 622.625 211.83C621.96 211.83 621.42 212.369 621.42 213.034V435.388C621.42 436.053 621.96 436.593 622.625 436.593Z" fill="#F2F2F2"/>
<path d="M469.961 435.709C470.473 435.709 470.948 435.379 471.11 434.865L543.076 206.126C543.275 205.492 542.923 204.815 542.288 204.616C541.654 204.417 540.977 204.769 540.778 205.403L468.812 434.142C468.612 434.777 468.965 435.453 469.599 435.653C469.72 435.69 469.841 435.709 469.961 435.709Z" fill="#F2F2F2"/>
<path d="M491.943 435.99C492.481 435.99 492.971 435.628 493.109 435.083L543.094 233.205C543.258 232.56 542.868 231.905 542.224 231.74C541.577 231.578 540.923 231.966 540.759 232.611L490.775 434.489C490.611 435.134 491 435.789 491.645 435.953C491.745 435.979 491.845 435.99 491.943 435.99Z" fill="#F2F2F2"/>
<path d="M622.625 216.577L539.217 215.294L523.86 302.918H621.42L622.625 216.577Z" fill="#F2F2F2"/>
<path d="M383.333 253.441C376.354 253.445 370.694 249.847 370.692 245.406C370.69 240.965 376.345 237.362 383.324 237.358C386.379 237.357 389.181 238.045 391.366 239.192L420.938 239.547L420.476 253.421L391.373 251.598C389.189 252.748 386.388 253.439 383.333 253.441Z" fill="#A0616A"/>
<path d="M495.738 184.987C510.022 200.601 511.777 223.959 499.985 241.531L476.305 263.192L400.378 255.988L401.979 238.215L455.641 235.328L495.738 184.987Z" fill="#CCCCCC"/>
<path d="M590.575 275.183C590.575 275.183 605.08 311.164 578.255 319.37C551.43 327.576 512.771 339.171 512.771 339.171L557.218 382.189L535.305 396.192C535.305 396.192 454.472 340.825 454.472 327.577C454.472 314.328 520.717 280.001 520.717 280.001L557.218 266.96L590.575 275.183Z" fill="#2F2E41"/>
<path d="M506.135 266.96C506.135 266.96 431.669 272.428 426.058 286.904C420.446 301.38 409.245 376.215 409.245 376.215L448.387 383.158L460.066 319.37L567.22 281.237L506.135 266.96Z" fill="#2F2E41"/>
<path d="M466.402 184.73L486.065 160.692L507.783 174.936C507.783 174.936 589.63 228.111 593.014 278.007C593.014 278.007 560.084 309.682 517.828 269.898L487.208 261.777L466.402 184.73Z" fill="#CCCCCC"/>
<path d="M379.072 284.712C372.54 287.171 365.977 285.795 364.413 281.638C362.848 277.482 366.875 272.119 373.406 269.661C376.265 268.585 379.13 268.243 381.58 268.548L409.386 258.478L413.834 271.628L385.95 280.159C384.31 282.004 381.931 283.636 379.072 284.712Z" fill="#A0616A"/>
<path d="M472.966 186.819L466.402 184.73L447.631 242.083L383.442 265.63L387.541 281.44L460.534 264.021L488.708 236.547L472.966 186.819Z" fill="#CCCCCC"/>
<path d="M460.973 167.624C473.833 167.624 484.258 157.198 484.258 144.338C484.258 131.478 473.833 121.053 460.973 121.053C448.113 121.053 437.688 131.478 437.688 144.338C437.688 157.198 448.113 167.624 460.973 167.624Z" fill="#A0616A"/>
<path d="M484.035 126.79C484.035 126.79 477.977 107.231 457.889 109.843C457.889 109.843 453.828 113.804 450.397 113.187C446.967 112.571 440.535 122.805 438.816 122.783C437.097 122.762 434.211 124.444 437.076 124.48C439.94 124.516 443.062 123.123 439.07 125.365C435.078 127.607 432.427 129.579 435.278 130.761C438.128 131.943 438.673 128.798 434.973 132.19C431.274 135.581 433.523 133.604 435.22 135.345C436.917 137.085 434.249 146.57 434.249 146.57C434.249 146.57 434.024 139.341 443.764 139.463C453.504 139.586 459.777 141.957 462.678 139.128C465.578 136.299 469.837 140.666 472.516 143.414C475.196 146.162 477.495 145.618 477.495 145.618L475.037 158.766C475.037 158.766 485.074 158.053 485.712 152.884C486.35 147.714 483.84 142.259 485.581 140.562C487.321 138.865 484.035 126.79 484.035 126.79Z" fill="#2F2E41"/>
<path d="M367.164 280.067C397.529 280.067 422.145 255.452 422.145 225.087C422.145 194.723 397.529 170.107 367.164 170.107C336.8 170.107 312.184 194.723 312.184 225.087C312.184 255.452 336.8 280.067 367.164 280.067Z" fill="#DA6D5F"/>
<path d="M370.014 225.348L364.557 226.268L369.807 257.401L375.264 256.481L370.014 225.348Z" fill="white"/>
<path d="M349.663 244.54L368.422 232.548L390.077 237.726L361.793 193.232L349.663 244.54Z" fill="white"/>
</svg>
