<svg width="17" height="17" viewBox="0 0 17 17" fill="none" xmlns="http://www.w3.org/2000/svg">
<path fill-rule="evenodd" clip-rule="evenodd" d="M15.5833 8.50008C15.5833 12.4122 12.4121 15.5834 8.50001 15.5834C4.58788 15.5834 1.41667 12.4122 1.41667 8.50008C1.41667 4.58796 4.58788 1.41675 8.50001 1.41675C12.4121 1.41675 15.5833 4.58796 15.5833 8.50008ZM6.35376 6.35383C6.45337 6.25435 6.58839 6.19847 6.72917 6.19847C6.86995 6.19847 7.00498 6.25435 7.10459 6.35383L8.50001 7.74925L9.89542 6.35383C9.99613 6.25999 10.1293 6.2089 10.267 6.21133C10.4046 6.21376 10.5359 6.26952 10.6332 6.36685C10.7306 6.46418 10.7863 6.5955 10.7888 6.73313C10.7912 6.87076 10.7401 7.00396 10.6463 7.10466L9.25084 8.50008L10.6463 9.8955C10.7401 9.99621 10.7912 10.1294 10.7888 10.267C10.7863 10.4047 10.7306 10.536 10.6332 10.6333C10.5359 10.7306 10.4046 10.7864 10.267 10.7888C10.1293 10.7913 9.99613 10.7402 9.89542 10.6463L8.50001 9.25092L7.10459 10.6463C7.00388 10.7402 6.87068 10.7913 6.73305 10.7888C6.59542 10.7864 6.46411 10.7306 6.36677 10.6333C6.26944 10.536 6.21368 10.4047 6.21126 10.267C6.20883 10.1294 6.25992 9.99621 6.35376 9.8955L7.74917 8.50008L6.35376 7.10466C6.25427 7.00506 6.19839 6.87003 6.19839 6.72925C6.19839 6.58847 6.25427 6.45344 6.35376 6.35383Z" fill="#88888F"/>
</svg>
