<svg width="211" height="212" viewBox="0 0 211 212" fill="none" xmlns="http://www.w3.org/2000/svg">
<g clip-path="url(#clip0_12_12)">
<path d="M117.817 154.306L122.839 122.773L88.9434 108.898L83.9219 156.829L117.817 154.306Z" fill="#A0616A"/>
<path d="M151.883 200.908C148.973 202.333 146.007 203.62 142.998 204.762C136.978 207.05 130.764 208.777 124.389 209.93C118.159 211.061 111.762 211.634 105.365 211.634C96.7233 211.634 88.1315 210.593 79.8223 208.532C76.5686 207.73 73.2869 206.75 70.0609 205.608C69.7227 205.486 69.3791 205.363 69.0409 205.24C65.0388 203.782 61.1031 202.072 57.3173 200.139C56.8072 199.883 56.2973 199.621 55.7874 199.342C55.2219 199.053 54.6621 198.747 54.0967 198.429C53.376 198.034 52.661 197.622 51.9459 197.204C49.5513 195.812 47.1955 194.308 44.945 192.743L44.7953 192.643C44.6622 192.548 44.5292 192.459 44.4017 192.364C44.4848 191.924 44.5625 191.523 44.6345 191.167C44.9117 189.769 45.0946 189 45.0946 189L60.2717 157.5L64.5011 148.722L66.5632 147.87L82.1394 141.438H120.21L132.222 146.428C132.222 146.428 132.283 146.656 132.405 147.096C133.602 151.412 140.586 175.918 151.423 199.894C151.573 200.228 151.728 200.568 151.883 200.908Z" fill="#DA6D5F"/>
<path d="M109.252 132.91C128.341 132.91 143.817 117.361 143.817 98.1807C143.817 79.0005 128.341 63.4518 109.252 63.4518C90.1618 63.4518 74.6865 79.0005 74.6865 98.1807C74.6865 117.361 90.1618 132.91 109.252 132.91Z" fill="#A0616A"/>
<path d="M66.6237 147.571L66.5642 147.87L56.0261 198.212L55.9349 198.65L55.7881 199.344C55.221 199.053 54.6617 198.746 54.0986 198.431C53.3767 198.033 52.6628 197.622 51.9449 197.204C49.5533 195.813 47.1974 194.307 44.9446 192.745L44.7939 192.641C44.663 192.549 44.5282 192.458 44.4013 192.366C42.68 191.159 41.0023 189.899 39.3642 188.6C39.3523 188.592 39.3444 188.584 39.3325 188.572C36.4094 186.205 33.5935 183.659 30.9004 180.953C29.1633 179.208 27.4935 177.41 25.8951 175.565L26.1371 174.545L26.1609 174.442L26.4623 173.143C29.1434 161.765 38.2141 153.034 49.6406 150.835L64.8231 147.914L66.6237 147.571Z" fill="#DA6D5F"/>
<path d="M174.272 186.187C169.798 190.014 165.004 193.478 159.943 196.519C159.449 196.82 158.945 197.115 158.441 197.41C156.29 198.658 154.1 199.822 151.883 200.908C148.973 202.333 146.007 203.62 142.998 204.762L142.765 203.659L130.864 146.801L132.405 147.096L147.848 150.07C159.272 152.27 168.346 161.003 171.024 172.381L173.978 184.951L174.272 186.187Z" fill="#DA6D5F"/>
<path d="M149.056 107.464C148.158 110.828 143.64 125.86 132.072 129.023C129.799 129.647 124.378 130.366 125.814 129.023C126.141 128.717 126.457 128.416 126.773 128.121C139.328 116.258 144.45 109.007 142.111 92.9114C140.625 82.6635 123.707 73.357 114.19 72.4324C110.177 72.043 105.055 73.4071 101.673 76.9217C96.0915 82.7135 97.0116 100.492 93.9186 110.934C93.0871 113.73 91.973 116.002 90.3709 117.378C89.3731 118.235 88.7357 117.144 88.2645 115.356C87.2613 111.557 87.0008 104.602 85.5762 106.567C81.4576 112.265 85.3821 119.817 86.5684 122.73C86.8123 123.326 87.0617 123.899 87.3111 124.445V124.451C87.4552 124.763 87.6049 125.075 87.749 125.37V125.375C91.7068 133.484 96.4628 136.386 100.653 141.438C102.3 143.415 103.857 145.715 105.249 148.789C106.202 150.895 106.889 153.011 107.361 155.088C109.761 165.503 106.912 174.965 106.141 177.539C104.528 182.896 101.757 192.102 93.6248 197.299C83.4142 203.826 74.0963 198.073 69.6396 204.272C69.5842 204.344 69.5342 204.416 69.4844 204.489C69.3181 204.739 69.1684 204.99 69.0409 205.24C65.0388 203.782 61.1031 202.072 57.3173 200.139C56.8072 199.883 56.2973 199.621 55.7874 199.342C55.2219 199.053 54.6621 198.747 54.0967 198.429C54.0745 197.995 54.0523 197.561 54.0356 197.121C53.7087 189.585 54.202 181.303 56.0701 173.044C57.2673 167.77 58.4536 162.54 60.2717 157.5C61.458 154.214 62.9102 151.006 64.8225 147.915C66.3526 145.431 68.1706 143.019 70.3768 140.702C75.2216 135.617 79.5286 133.496 80.2104 128.126C81.1859 120.463 73.2427 118.157 70.3768 106.567C68.4202 98.6423 66.3747 87.2196 68.3591 79.5225C70.2328 72.2491 71.8624 65.9389 77.3003 59.7565C78.6084 58.275 89.3455 47.9716 101.784 46.2785C107.516 45.5045 112.627 52.8785 119.556 54.4656C127.521 56.2871 132.083 57.3286 136.54 60.7535C144.073 66.5345 146.196 75.1785 148.164 83.2095C149.705 89.4919 151.7 97.6176 149.056 107.464Z" fill="#2F2E41"/>
<path d="M180.1 31.0468C160.174 11.0264 133.68 0 105.5 0C77.3204 0 50.8264 11.0264 30.9004 31.0468C10.9744 51.0673 0 77.6868 0 106C0 131.842 9.14201 156.274 25.8951 175.565C27.4935 177.411 29.1632 179.208 30.9004 180.953C33.5934 183.659 36.4094 186.205 39.3325 188.572C39.3444 188.584 39.3523 188.592 39.3642 188.6C58.0488 203.763 81.1438 212 105.5 212C133.68 212 160.174 200.974 180.1 180.953C200.026 160.933 211 134.313 211 106C211 77.6868 200.026 51.0673 180.1 31.0468ZM174.091 185.42C167.321 191.338 159.785 196.391 151.658 200.416C148.807 201.83 145.884 203.118 142.893 204.269C131.276 208.748 118.668 211.203 105.5 211.203C92.7924 211.203 80.6083 208.916 69.3325 204.731C64.704 203.018 60.2302 200.982 55.9348 198.65C55.3042 198.308 54.6776 197.961 54.0549 197.606C50.7788 195.741 47.6098 193.705 44.5678 191.505C37.7698 186.604 31.5786 180.905 26.137 174.545C10.3477 156.119 0.793233 132.161 0.793233 106C0.793233 47.9909 47.7645 0.796992 105.5 0.796992C163.235 0.796992 210.207 47.9909 210.207 106C210.207 137.672 196.206 166.121 174.091 185.42Z" fill="#DEE1E5"/>
</g>
<defs>
<clipPath id="clip0_12_12">
<rect width="211" height="212" fill="white"/>
</clipPath>
</defs>
</svg>
