<svg width="212" height="212" viewBox="0 0 212 212" fill="none" xmlns="http://www.w3.org/2000/svg">
<g clip-path="url(#clip0_12_27)">
<path d="M151.106 151.05H98.1058V79.3207L143.933 104.426L151.106 151.05Z" fill="#392F44"/>
<path d="M107.897 138.39C126.901 138.39 142.307 122.984 142.307 103.98C142.307 84.9765 126.901 69.5707 107.897 69.5707C88.8929 69.5707 73.4871 84.9765 73.4871 103.98C73.4871 122.984 88.8929 138.39 107.897 138.39Z" fill="#E09595"/>
<path d="M88.1434 143.479L86.5888 127.764L117.632 121.96L135.963 166.591L104.083 203.253L81.369 158.621L88.1434 143.479Z" fill="#E09595"/>
<path d="M182.129 179.758C181.742 180.16 181.348 180.559 180.953 180.953C179.702 182.204 178.427 183.42 177.124 184.599C157.597 202.309 132.544 212 106 212C81.5284 212 58.3239 203.763 39.5508 188.6C39.5388 188.592 39.5308 188.584 39.5189 188.572C38.949 188.114 38.3871 187.648 37.8253 187.174C37.9249 186.887 38.0325 186.604 38.1401 186.325C44.1773 170.596 56.1003 162.901 63.337 159.534C66.9235 157.864 69.3583 157.255 69.3583 157.255L77.8542 141.952L83.8356 153.11L88.243 161.335L106.327 195.076L121.928 156.23L126.762 144.188L128.001 141.104L133.895 145.69L139.474 150.03L150.707 152.508L159.821 154.521L172.198 157.255C177.203 161.331 180.248 169.086 181.949 178.722C182.013 179.064 182.073 179.411 182.129 179.758Z" fill="#FFE0DC"/>
<path d="M90.4392 65.6761C94.6306 58.6355 102.329 53.8048 110.491 53.0928C118.654 52.3808 127.072 55.8058 132.419 62.0145C135.606 65.7142 137.695 70.2452 140.801 74.0128C147.485 82.1204 158.882 86.8609 161.801 96.9545C163.075 101.359 162.441 106.061 161.796 110.601C161.243 114.492 160.691 118.383 160.138 122.274C159.708 125.302 159.296 128.494 160.431 131.334C161.763 134.666 164.951 136.848 167.012 139.785C170.519 144.783 170.263 152.1 166.415 156.84C164.746 158.896 162.533 160.446 160.783 162.433C159.034 164.421 157.736 167.138 158.469 169.682C159.873 174.556 167.516 175.725 168.355 180.728C168.783 183.285 167.017 185.839 164.702 187.009C162.388 188.178 159.663 188.212 157.089 187.899C147.304 186.71 138.245 180.597 133.481 171.968C128.717 163.339 128.37 152.415 132.577 143.502C136.032 136.181 142.454 129.711 142.384 121.616C142.346 117.206 140.323 113.087 138.345 109.146C134.297 101.078 130.248 93.0098 126.2 84.9419C124.031 80.6203 121.514 75.9631 117.05 74.1066C113.599 72.6717 109.684 73.2282 105.994 73.8151C102.303 74.402 98.3939 74.9732 94.9331 73.5633C91.4724 72.1534 88.8575 67.9645 90.5064 64.6111" fill="#392F44"/>
<path d="M95.827 65.2441C89.179 63.0558 81.7214 66.5688 77.2207 71.9286C72.72 77.2885 70.5367 84.1649 68.4569 90.8476C67.2656 94.6755 66.0743 98.5034 64.883 102.331C63.7623 105.932 62.6417 109.533 61.521 113.134C60.2028 117.369 58.8739 121.869 59.9557 126.171C60.7378 129.281 62.7502 132.105 62.7935 135.312C62.8388 138.662 60.7411 141.602 58.9028 144.403C57.0644 147.203 55.3388 150.53 56.2147 153.764C57.5469 158.682 64.3846 161.385 64.0098 166.467C63.8847 168.163 62.904 169.731 62.9218 171.432C62.9445 173.595 64.6383 175.465 66.6228 176.327C68.6073 177.189 70.8396 177.235 73.0029 177.197C79.6384 177.081 86.2619 176.293 92.7395 174.849C95.2318 174.294 97.7661 173.613 99.8406 172.124C101.915 170.636 103.463 168.169 103.193 165.63C102.772 161.674 98.518 159.429 96.3713 156.079C94.2627 152.789 94.3116 148.619 93.4023 144.819C92.1527 139.595 89.0666 135.034 86.7498 130.189C78.0399 111.971 81.0889 88.7502 94.2066 73.3986C95.3664 72.0413 96.6335 70.6758 97.1174 68.9572C97.6013 67.2387 96.9775 65.0491 95.2964 64.4479" fill="#392F44"/>
<path d="M180.953 31.0468C160.933 11.0264 134.313 0 106 0C77.6868 0 51.0673 11.0264 31.0468 31.0468C11.0264 51.0673 0 77.6868 0 106C0 131.842 9.18533 156.274 26.0178 175.565C27.6238 177.411 29.3014 179.208 31.0468 180.953C31.4573 181.364 31.8717 181.774 32.2902 182.173C33.406 183.252 34.5417 184.308 35.6973 185.333C36.3987 185.958 37.108 186.572 37.8253 187.174C38.3872 187.648 38.949 188.114 39.5189 188.572C39.5308 188.584 39.5388 188.592 39.5508 188.6C58.3239 203.763 81.5284 212 106 212C132.544 212 157.597 202.309 177.124 184.599C178.427 183.42 179.702 182.204 180.953 180.953C181.348 180.559 181.742 180.16 182.129 179.758C183.205 178.65 184.249 177.522 185.269 176.378C202.552 156.964 212 132.209 212 106C212 77.6868 200.974 51.0673 180.953 31.0468ZM185.01 175.386C184.014 176.518 182.993 177.634 181.949 178.722C180.324 180.415 178.646 182.057 176.912 183.639C176.255 184.245 175.589 184.834 174.916 185.42C168.114 191.338 160.542 196.391 152.377 200.416C149.512 201.83 146.575 203.118 143.57 204.269C131.898 208.748 119.23 211.203 106 211.203C93.2322 211.203 80.9904 208.916 69.6611 204.731C65.0107 203.018 60.5156 200.982 56.1999 198.65C55.5663 198.308 54.9367 197.961 54.311 197.606C51.0195 195.741 47.8355 193.705 44.779 191.505C42.4956 189.867 40.28 188.142 38.1401 186.325C37.3909 185.691 36.6497 185.05 35.9205 184.392C34.7329 183.336 33.5693 182.248 32.4336 181.132C30.2817 179.024 28.2255 176.829 26.2609 174.545C10.3968 156.119 0.796992 132.161 0.796992 106C0.796992 47.9909 47.9909 0.796992 106 0.796992C164.009 0.796992 211.203 47.9909 211.203 106C211.203 132.564 201.308 156.856 185.01 175.386Z" fill="#DEE1E5"/>
</g>
<defs>
<clipPath id="clip0_12_27">
<rect width="212" height="212" fill="white"/>
</clipPath>
</defs>
</svg>
