<svg width="212" height="212" viewBox="0 0 212 212" fill="none" xmlns="http://www.w3.org/2000/svg">
<g clip-path="url(#clip0_12_35)">
<path d="M107.896 138.389C126.9 138.389 142.306 122.983 142.306 103.979C142.306 84.9754 126.9 69.5696 107.896 69.5696C88.8925 69.5696 73.4867 84.9754 73.4867 103.979C73.4867 122.983 88.8925 138.389 107.896 138.389Z" fill="#A0616A"/>
<path d="M79.4155 146.094L86.5884 127.763L123.649 122.184L127.63 162.762L90.1717 163.559L79.4155 146.094Z" fill="#A0616A"/>
<path d="M185.269 176.379C183.882 177.937 182.444 179.463 180.953 180.954C160.933 200.974 134.313 212 106 212C81.5284 212 58.324 203.763 39.5508 188.6C39.5388 188.593 39.5308 188.584 39.5189 188.572C37.0283 186.564 34.6174 184.428 32.2902 182.173C32.3339 181.822 32.3818 181.475 32.4336 181.133C32.7604 178.821 33.1231 176.618 33.5294 174.589C36.8569 157.964 80.6397 140.51 81.7794 140.056C81.7953 140.052 81.8033 140.048 81.8033 140.048C81.8033 140.048 87.4381 160.817 111.583 160.55C128.029 160.371 124.841 140.048 124.841 140.048C124.841 140.048 125.04 140.087 125.415 140.167C130.165 141.176 163.144 148.42 176.155 158.307C180.12 161.319 182.966 167.735 185.01 175.386C185.098 175.713 185.181 176.048 185.269 176.379Z" fill="#FFA297"/>
<path d="M180.953 31.0469C160.933 11.0267 134.313 0 106 0C77.6868 0 51.0674 11.0267 31.0468 31.0469C11.0265 51.0674 0 77.6869 0 106C0 131.843 9.18536 156.274 26.0178 175.566C27.6238 177.411 29.3014 179.208 31.0468 180.953C31.4573 181.364 31.8717 181.774 32.2902 182.173C34.6174 184.428 37.0283 186.564 39.5189 188.572C39.5308 188.584 39.5388 188.593 39.5508 188.6C58.324 203.763 81.5284 212 106 212C134.313 212 160.933 200.974 180.953 180.953C182.444 179.463 183.882 177.937 185.269 176.379C202.552 156.964 212 132.209 212 106C212 77.6869 200.974 51.0674 180.953 31.0469ZM185.01 175.386C181.874 178.953 178.502 182.308 174.916 185.421C168.114 191.338 160.542 196.391 152.377 200.416C149.512 201.831 146.575 203.118 143.57 204.269C131.898 208.749 119.23 211.203 106 211.203C93.2322 211.203 80.9904 208.916 69.6612 204.732C65.0106 203.018 60.5157 200.982 56.1999 198.65C55.5663 198.308 54.9367 197.961 54.3111 197.607C51.0195 195.741 47.8355 193.705 44.7791 191.505C40.3996 188.365 36.2711 184.894 32.4336 181.132C30.2817 179.024 28.2255 176.829 26.261 174.546C10.3968 156.119 0.796992 132.161 0.796992 106C0.796992 47.9912 47.9909 0.796992 106 0.796992C164.009 0.796992 211.203 47.9912 211.203 106C211.203 132.564 201.308 156.856 185.01 175.386Z" fill="#DEE1E5"/>
<path d="M143.556 85.7237C143.8 83.2289 143.912 80.7238 143.892 78.218C144.034 73.2624 143.087 68.3335 141.111 63.7518C138.681 58.6788 134.349 54.6676 128.976 52.5153C123.649 50.4563 117.697 50.4613 112.374 52.5292C107.569 49.6193 102.23 47.3125 96.6069 47.0268C90.9839 46.7411 85.0389 48.7404 81.5737 53.1416C80.7999 54.3034 79.9211 55.3977 78.9473 56.4119C76.1619 58.8842 71.9289 58.5276 68.2266 58.0221C69.8871 59.3862 71.5481 60.7502 73.2095 62.1142C71.1994 62.6176 69.1892 63.1209 67.1788 63.6241C69.5246 64.9877 71.8703 66.3513 74.2157 67.7149C67.4059 71.6325 64.3107 80.183 65.1284 87.9488C65.9019 95.3011 69.6054 102.024 74.0326 108C75.7987 104.428 75.4182 100.154 75.389 96.1306C75.3728 94.8257 75.4559 93.5214 75.6375 92.228C90.5996 95.6655 106.233 97.8717 122.087 92.4121L125.269 84.9489C125.715 84.9929 126.162 85.0342 126.608 85.0796L128.452 92.419C132.631 94.0562 136.819 95.487 141.008 93.9835C141.212 95.1171 141.335 96.2741 141.429 97.386C141.788 96.0559 142.1 94.716 142.382 93.3707C142.935 93.086 143.466 92.7614 143.968 92.3996C144.069 90.1666 143.931 87.9296 143.556 85.7237Z" fill="#2F2E41"/>
</g>
<defs>
<clipPath id="clip0_12_35">
<rect width="212" height="212" fill="white"/>
</clipPath>
</defs>
</svg>
