<svg width="212" height="212" viewBox="0 0 212 212" fill="none" xmlns="http://www.w3.org/2000/svg">
<g clip-path="url(#clip0_12_21)">
<path d="M107.897 138.391C126.901 138.391 142.307 122.985 142.307 103.981C142.307 84.9774 126.901 69.5716 107.897 69.5716C88.8928 69.5716 73.4871 84.9774 73.4871 103.981C73.4871 122.985 88.8928 138.391 107.897 138.391Z" fill="#FFB6B6"/>
<path d="M88.1433 143.479L86.5888 127.765L117.632 121.961L135.963 166.592L104.083 203.254L81.3689 158.622L88.1433 143.479Z" fill="#FFB6B6"/>
<path d="M86.0901 135.631L92.8769 137.165C92.8769 137.165 87.5418 120.247 89.3526 118.631C91.1635 117.016 95.6011 119.561 95.6011 119.561L100.264 124.789L105.944 119.006C105.944 119.006 112.111 111.338 114.526 109.185C116.94 107.031 113.062 99.0377 113.062 99.0377C113.062 99.0377 148.883 89.3785 135.554 72.0039C135.554 72.0039 127.739 58.3815 125.194 62.819C122.649 67.2566 119.615 60.2088 119.615 60.2088L110.348 61.971C110.348 61.971 92.0595 51.1875 74.7014 74.2565C57.3433 97.3254 86.0901 135.631 86.0901 135.631Z" fill="#34316C"/>
<path d="M172.613 188.469C153.808 203.715 130.543 212 106 212C83.5886 212 62.2411 205.09 44.3845 192.282C44.4164 191.948 44.4483 191.617 44.4762 191.286C44.9504 186.106 45.3728 181.069 45.6517 176.892C46.7317 160.678 84.5609 149.87 84.5609 149.87C84.5609 149.87 84.7323 150.042 85.075 150.341C87.1631 152.174 95.6391 158.821 110.503 160.678C123.757 162.335 128.121 154.473 129.44 150.707C129.838 149.56 129.958 148.791 129.958 148.791L168.867 167.165C171.405 170.792 172.397 178.602 172.593 187.381C172.601 187.744 172.609 188.102 172.613 188.469Z" fill="#DE8277"/>
<path d="M180.953 31.0469C160.933 11.0264 134.313 0 106 0C77.6868 0 51.0673 11.0264 31.0469 31.0469C11.0264 51.0673 0 77.6868 0 106C0 131.842 9.18536 156.274 26.0178 175.565C27.6238 177.411 29.3014 179.208 31.0469 180.953C31.4573 181.364 31.8717 181.774 32.2902 182.173C33.406 183.252 34.5417 184.309 35.6973 185.333C36.3987 185.958 37.108 186.572 37.8253 187.174C38.3872 187.648 38.9491 188.114 39.5189 188.572C39.5308 188.584 39.5388 188.592 39.5508 188.6C41.1328 189.875 42.7427 191.103 44.3845 192.282C62.2411 205.09 83.5886 212 106 212C130.543 212 153.808 203.715 172.613 188.469C174.147 187.225 175.649 185.934 177.124 184.599C178.427 183.42 179.702 182.204 180.953 180.953C181.348 180.559 181.742 180.16 182.129 179.758C183.205 178.65 184.249 177.522 185.269 176.378C202.552 156.964 212 132.209 212 106C212 77.6868 200.974 51.0673 180.953 31.0469ZM185.01 175.386C184.014 176.518 182.993 177.634 181.949 178.722C180.324 180.415 178.646 182.057 176.912 183.639C176.255 184.245 175.589 184.835 174.916 185.42C174.151 186.086 173.378 186.739 172.593 187.381C166.404 192.462 159.626 196.845 152.377 200.416C149.512 201.83 146.575 203.118 143.57 204.269C131.898 208.748 119.23 211.203 106 211.203C93.2322 211.203 80.9904 208.916 69.6611 204.731C65.0107 203.018 60.5157 200.982 56.1999 198.65C55.5663 198.308 54.9367 197.961 54.3111 197.606C51.0195 195.741 47.8355 193.705 44.779 191.505C44.6794 191.434 44.5758 191.358 44.4762 191.286C42.3004 189.716 40.1844 188.062 38.1401 186.325C37.3909 185.691 36.6497 185.05 35.9205 184.392C34.7329 183.336 33.5693 182.248 32.4336 181.132C30.2818 179.024 28.2255 176.829 26.2609 174.545C10.3968 156.119 0.796992 132.161 0.796992 106C0.796992 47.9909 47.9909 0.796992 106 0.796992C164.009 0.796992 211.203 47.9909 211.203 106C211.203 132.564 201.308 156.856 185.01 175.386Z" fill="#DEE1E5"/>
</g>
<defs>
<clipPath id="clip0_12_21">
<rect width="212" height="212" fill="white"/>
</clipPath>
</defs>
</svg>
